<?xml version="1.0" encoding="UTF-8"?>
<svg id="Ebene_3" data-name="Ebene 3" xmlns="http://www.w3.org/2000/svg" viewBox="0 0 234.36 452.91">
  <defs>
    <style>
      .cls-1 {
        fill: #b0892d;
      }
    </style>
  </defs>
  <g id="Ebene_1" data-name="Ebene 1">
    <g>
      <g>
        <path class="cls-1" d="M8.45,397.09l2.46-.88h2.14v13.05h-2.59v-10.46l-1.36.47-.65-2.18Z"/>
        <path class="cls-1" d="M19.75,409.51c-3.26,0-4.49-2.31-4.49-6.77s1.23-6.77,4.49-6.77,4.51,2.33,4.51,6.77-1.23,6.77-4.51,6.77ZM19.75,407.05c1.6,0,1.85-1.53,1.85-4.31s-.24-4.31-1.85-4.31-1.83,1.55-1.83,4.31.24,4.31,1.83,4.31Z"/>
        <path class="cls-1" d="M25.27,407.94c0-.88.69-1.6,1.58-1.6s1.58.73,1.58,1.6-.69,1.57-1.58,1.57-1.58-.71-1.58-1.57Z"/>
        <path class="cls-1" d="M37.22,398.58h-3.06v-2.37h8.72v2.37h-3.04v10.68h-2.63v-10.68Z"/>
        <path class="cls-1" d="M48.94,401.88c-1.92,0-2.63,1.19-2.63,3.13v4.25h-2.57v-9.75h2.52v1.42c.43-.97,1.4-1.66,2.68-1.66v2.61Z"/>
        <path class="cls-1" d="M54.96,399.27c2.98,0,5.26,2.2,5.26,5.14s-2.2,5.09-5.26,5.09-5.24-2.14-5.24-5.09,2.27-5.14,5.24-5.14ZM54.96,407.23c1.55,0,2.68-1.16,2.68-2.81s-1.14-2.87-2.68-2.87-2.67,1.19-2.67,2.87,1.14,2.81,2.67,2.81Z"/>
        <path class="cls-1" d="M75.62,409.26h-2.57v-5.83c0-1.16-.58-1.85-1.53-1.85s-1.58.69-1.58,1.86v5.82h-2.57v-5.93c0-1.1-.56-1.75-1.51-1.75s-1.58.69-1.58,1.85v5.83h-2.57v-9.75h2.52v1.14c.35-.67,1.21-1.38,2.54-1.38,1.25,0,2.16.56,2.67,1.45.58-.89,1.58-1.45,2.89-1.45,2.22,0,3.32,1.47,3.32,3.56v6.43Z"/>
        <path class="cls-1" d="M91.48,409.26h-2.57v-5.83c0-1.16-.58-1.85-1.53-1.85s-1.58.69-1.58,1.86v5.82h-2.57v-5.93c0-1.1-.56-1.75-1.51-1.75s-1.58.69-1.58,1.85v5.83h-2.57v-9.75h2.52v1.14c.35-.67,1.21-1.38,2.54-1.38,1.25,0,2.16.56,2.67,1.45.58-.89,1.58-1.45,2.89-1.45,2.22,0,3.32,1.47,3.32,3.56v6.43Z"/>
        <path class="cls-1" d="M97.67,399.27c3.02,0,4.73,2.01,4.73,5.2,0,.19,0,.37-.02.56h-6.86c.06,1.3,1.1,2.24,2.54,2.24,1.32,0,2.09-.78,2.37-1.19l1.7,1.29c-.37.69-1.68,2.14-4.1,2.14-3.13,0-5.13-2.16-5.13-5.09s1.99-5.14,4.77-5.14ZM99.8,403.36c-.06-1.19-.91-1.98-2.09-1.98s-1.99.86-2.11,1.98h4.19Z"/>
        <path class="cls-1" d="M103.84,395.79h2.57v13.48h-2.57v-13.48Z"/>
        <path class="cls-1" d="M107.79,407.7l1.51-1.34c.48.56,1.14,1.06,2.24,1.06.73,0,1.19-.32,1.19-.88,0-1.49-4.6-.91-4.6-4.38,0-1.81,1.55-2.89,3.54-2.89,1.84,0,2.87.97,3.34,1.73l-1.7,1.27c-.3-.37-.84-.93-1.75-.93-.6,0-1.01.3-1.01.78,0,1.55,4.62.8,4.62,4.29,0,1.9-1.64,3.09-3.75,3.09-1.92,0-3.11-.97-3.63-1.81Z"/>
        <path class="cls-1" d="M123.56,406.36l.69,2.11c-.56.45-1.62,1.04-3.04,1.04-3.04,0-5.2-2.13-5.2-5.09s2.22-5.14,5.18-5.14c1.43,0,2.44.56,3.08,1.04l-.73,2.16c-.43-.39-1.17-.93-2.27-.93-1.66,0-2.68,1.29-2.68,2.85,0,1.66,1.16,2.83,2.78,2.83.99,0,1.77-.52,2.2-.88Z"/>
        <path class="cls-1" d="M134.21,403.64v5.63h-2.55v-5.93c0-1.08-.75-1.75-1.62-1.75-1.08,0-1.77.78-1.77,1.83v5.85h-2.57v-13.48h2.57v4.86c.41-.67,1.3-1.38,2.57-1.38,2.8,0,3.37,2.29,3.37,4.36Z"/>
        <path class="cls-1" d="M137.43,395.7c.86,0,1.51.63,1.51,1.47s-.65,1.47-1.51,1.47-1.49-.63-1.49-1.47.65-1.47,1.49-1.47ZM136.17,399.52h2.57v9.75h-2.57v-9.75Z"/>
        <path class="cls-1" d="M145.02,399.27c3.02,0,4.73,2.01,4.73,5.2,0,.19,0,.37-.02.56h-6.86c.06,1.3,1.1,2.24,2.54,2.24,1.32,0,2.09-.78,2.37-1.19l1.7,1.29c-.37.69-1.68,2.14-4.1,2.14-3.13,0-5.13-2.16-5.13-5.09s1.99-5.14,4.77-5.14ZM147.15,403.36c-.06-1.19-.91-1.98-2.09-1.98s-1.99.86-2.11,1.98h4.19Z"/>
        <path class="cls-1" d="M150.54,407.7l1.51-1.34c.48.56,1.14,1.06,2.24,1.06.73,0,1.19-.32,1.19-.88,0-1.49-4.6-.91-4.6-4.38,0-1.81,1.55-2.89,3.54-2.89,1.84,0,2.87.97,3.34,1.73l-1.7,1.27c-.3-.37-.84-.93-1.75-.93-.6,0-1.01.3-1.01.78,0,1.55,4.62.8,4.62,4.29,0,1.9-1.64,3.09-3.75,3.09-1.92,0-3.11-.97-3.63-1.81Z"/>
        <path class="cls-1" d="M158.65,407.7l1.51-1.34c.48.56,1.14,1.06,2.24,1.06.73,0,1.19-.32,1.19-.88,0-1.49-4.6-.91-4.6-4.38,0-1.81,1.55-2.89,3.54-2.89,1.84,0,2.87.97,3.34,1.73l-1.7,1.27c-.3-.37-.84-.93-1.75-.93-.6,0-1.01.3-1.01.78,0,1.55,4.62.8,4.62,4.29,0,1.9-1.64,3.09-3.75,3.09-1.92,0-3.11-.97-3.63-1.81Z"/>
        <path class="cls-1" d="M171.66,399.27c3.02,0,4.73,2.01,4.73,5.2,0,.19,0,.37-.02.56h-6.86c.06,1.3,1.1,2.24,2.54,2.24,1.32,0,2.09-.78,2.37-1.19l1.7,1.29c-.37.69-1.68,2.14-4.1,2.14-3.13,0-5.13-2.16-5.13-5.09s1.99-5.14,4.77-5.14ZM173.78,403.36c-.06-1.19-.91-1.98-2.09-1.98s-1.99.86-2.11,1.98h4.19Z"/>
        <path class="cls-1" d="M186.33,403.64v5.63h-2.57v-5.93c0-1.08-.75-1.75-1.62-1.75-1.06,0-1.73.78-1.73,1.83v5.85h-2.57v-9.75h2.52v1.14c.41-.67,1.34-1.38,2.61-1.38,2.78,0,3.37,2.29,3.37,4.36Z"/>
        <path class="cls-1" d="M188.1,402.44h5.18v2.31h-5.18v-2.31Z"/>
        <path class="cls-1" d="M202.87,400.26l-2.46,9h-2.96l-3.5-13.05h2.87l2.26,9.77,2.59-9.77h2.42l2.59,9.77,2.27-9.77h2.85l-3.49,13.05h-2.98l-2.46-9Z"/>
        <path class="cls-1" d="M220.33,405.11l3.75-8.89h3.39v13.05h-2.52v-9.32l-3.39,8.22h-2.44l-3.39-8.22v9.32h-2.52v-13.05h3.39l3.73,8.89Z"/>
      </g>
      <g>
        <path class="cls-1" d="M20.48,56.57h-9.17c-.24,0-.36-.13-.36-.4V9.81H.4c-.26,0-.4-.13-.4-.4L.08.32C.08.11.18,0,.4,0h30.89c.29,0,.44.11.44.32v9.09c0,.26-.11.4-.32.4h-10.68l.08,46.37c0,.26-.11.4-.32.4Z"/>
        <path class="cls-1" d="M45.18,56.57h-9.21c-.21,0-.32-.13-.32-.4l.16-55.86c0-.21.11-.32.32-.32h16.44c2.94,0,5.64.71,8.1,2.14,2.46,1.43,4.43,3.35,5.9,5.76,1.47,2.41,2.2,5.13,2.2,8.18,0,1.98-.31,3.79-.91,5.4-.61,1.61-1.32,2.98-2.12,4.09s-1.54,1.93-2.2,2.46c2.94,3.26,4.41,7.08,4.41,11.47l.08,16.67c0,.26-.13.4-.4.4h-9.21c-.21,0-.32-.08-.32-.24v-16.83c0-1.96-.69-3.65-2.06-5.08-1.38-1.43-3.07-2.14-5.08-2.14h-5.36l-.08,23.9c0,.26-.11.4-.32.4ZM52.56,9.73h-6.99v12.78h6.99c1.67,0,3.16-.62,4.47-1.87,1.31-1.24,1.96-2.77,1.96-4.57s-.64-3.21-1.91-4.47-2.78-1.89-4.52-1.89Z"/>
        <path class="cls-1" d="M84.36,56.57h-9.21c-.21,0-.32-.13-.32-.4l.16-55.86c0-.21.11-.32.32-.32h9.93c.21,0,.4.11.55.32l7.42,10.72L100.6.32c.16-.21.36-.32.6-.32h9.96c.24,0,.36.11.36.32l.16,55.86c0,.26-.11.4-.32.4h-9.21c-.21,0-.32-.13-.32-.4l-.08-41.48-8.54,12.39-8.46-12.39-.08,41.48c0,.26-.11.4-.32.4Z"/>
        <path class="cls-1" d="M127.99,56.57h-9.21c-.21,0-.32-.13-.32-.4l.16-55.86c0-.21.11-.32.32-.32h9.93c.21,0,.4.11.55.32l7.42,10.72,7.38-10.72c.16-.21.36-.32.6-.32h9.96c.24,0,.36.11.36.32l.16,55.86c0,.26-.11.4-.32.4h-9.21c-.21,0-.32-.13-.32-.4l-.08-41.48-8.54,12.39-8.46-12.39-.08,41.48c0,.26-.11.4-.32.4Z"/>
        <path class="cls-1" d="M188.69,56.57h-26.28c-.21,0-.32-.13-.32-.4l.08-55.78c0-.26.13-.4.4-.4h9.05c.26,0,.4.13.4.4l-.08,46.17h16.75c.26,0,.4.13.4.4v9.21c0,.26-.13.4-.4.4Z"/>
        <path class="cls-1" d="M203.89,56.57h-9.21c-.21,0-.32-.13-.32-.4l.16-55.86c0-.21.11-.32.32-.32h16.44c2.94,0,5.64.71,8.1,2.14,2.46,1.43,4.43,3.35,5.9,5.76,1.47,2.41,2.2,5.13,2.2,8.18,0,1.98-.31,3.79-.91,5.4-.61,1.61-1.32,2.98-2.12,4.09s-1.54,1.93-2.2,2.46c2.94,3.26,4.41,7.08,4.41,11.47l.08,16.67c0,.26-.13.4-.4.4h-9.21c-.21,0-.32-.08-.32-.24v-16.83c0-1.96-.69-3.65-2.06-5.08-1.38-1.43-3.07-2.14-5.08-2.14h-5.36l-.08,23.9c0,.26-.11.4-.32.4ZM211.28,9.73h-6.99v12.78h6.99c1.67,0,3.16-.62,4.47-1.87,1.31-1.24,1.96-2.77,1.96-4.57s-.64-3.21-1.91-4.47-2.78-1.89-4.52-1.89Z"/>
      </g>
      <g>
        <path class="cls-1" d="M50.72,332.4H10.19c-1.17,0-1.75-.58-1.75-1.75l.35-245.84c0-.93.46-1.4,1.4-1.4h40.19c.93,0,1.4.47,1.4,1.4l.35,245.84c0,1.17-.47,1.75-1.4,1.75Z"/>
        <path class="cls-1" d="M156.96,335.89c-15.14,0-28.6-3.26-40.36-9.78-11.65-6.52-20.77-15.23-27.34-26.12-6.58-10.89-9.87-22.86-9.87-35.91l.35-113.4c0-13.28,3.32-25.22,9.96-35.82,6.52-10.72,15.61-19.31,27.26-25.77,11.65-6.46,24.99-9.7,40.01-9.7s28.77,3.21,40.19,9.61c11.41,6.41,20.41,15,27,25.77,6.58,10.78,9.87,22.74,9.87,35.91l.35,113.4c0,12.93-3.26,24.87-9.78,35.82-6.64,10.95-15.75,19.69-27.34,26.21-11.59,6.52-25.02,9.78-40.27,9.78ZM191.03,264.08l-.35-113.4c0-8.39-3.12-15.2-9.35-20.44-6.23-5.24-14.36-7.86-24.37-7.86s-18.46,2.62-24.64,7.86c-6.18,5.24-9.26,12.06-9.26,20.44v113.4c0,8.85,3.08,15.84,9.26,20.97,6.17,5.13,14.39,7.69,24.64,7.69s18.2-2.56,24.55-7.69c6.35-5.12,9.52-12.11,9.52-20.97Z"/>
      </g>
      <g>
        <path class="cls-1" d="M8.59,363.15h11.3v3.98h-6.87v4.89h5.9v3.92h-5.9v5.21h7.15v3.95h-11.58v-21.96ZM14.17,357.43h4.55l-3.04,4.52h-3.61l2.1-4.52Z"/>
        <path class="cls-1" d="M39.34,385.11h-4.08v-1.69c-.44.53-2.07,2.1-4.86,2.1-4.71,0-8.03-3.55-8.03-8.6s3.07-8.63,7.78-8.63c2.82,0,4.46,1.57,4.86,2.13v-8h4.33v22.69ZM30.93,372.12c-2.51,0-4.2,1.98-4.2,4.83s1.76,4.74,4.2,4.74c2.64,0,4.21-2.13,4.21-4.74,0-3.08-1.82-4.83-4.21-4.83Z"/>
        <path class="cls-1" d="M44.86,362.27c1.44,0,2.54,1.07,2.54,2.48s-1.1,2.48-2.54,2.48-2.51-1.07-2.51-2.48,1.1-2.48,2.51-2.48ZM42.73,368.7h4.33v16.41h-4.33v-16.41Z"/>
        <path class="cls-1" d="M50.89,365.25h4.27v3.45h3.08v3.51h-3.08v6.34c0,2.45.75,2.95,2.42,2.95.28,0,.44,0,.78-.03v3.7s-.66.16-1.85.16c-3.92,0-5.65-2.2-5.65-6.65v-6.46h-1.73v-3.51h1.76v-3.45Z"/>
        <path class="cls-1" d="M63.06,362.27c1.44,0,2.54,1.07,2.54,2.48s-1.1,2.48-2.54,2.48-2.51-1.07-2.51-2.48,1.1-2.48,2.51-2.48ZM60.93,368.7h4.33v16.41h-4.33v-16.41Z"/>
        <path class="cls-1" d="M76.59,368.29c5.02,0,8.85,3.7,8.85,8.66s-3.7,8.57-8.85,8.57-8.82-3.61-8.82-8.57,3.83-8.66,8.82-8.66ZM76.59,381.69c2.6,0,4.52-1.95,4.52-4.74s-1.91-4.83-4.52-4.83-4.49,2.01-4.49,4.83,1.91,4.74,4.49,4.74Z"/>
        <path class="cls-1" d="M102.23,375.63v9.48h-4.33v-9.98c0-1.82-1.25-2.95-2.73-2.95-1.79,0-2.92,1.32-2.92,3.08v9.85h-4.33v-16.41h4.24v1.91c.69-1.13,2.26-2.32,4.39-2.32,4.68,0,5.68,3.86,5.68,7.34Z"/>
        <path class="cls-1" d="M112.71,381.06c.25.03,1,.19,1.82.19,1.51,0,2.23-.91,2.23-2.38v-15.72h4.42v16.5c0,4.08-2.7,5.65-6.09,5.65-1.19,0-2.01-.13-2.89-.31l.5-3.92Z"/>
        <path class="cls-1" d="M124.89,378.17v-9.48h4.33v9.98c0,1.82,1.26,2.95,2.73,2.95,1.79,0,2.92-1.32,2.92-3.08v-9.85h4.33v16.41h-4.24v-1.91c-.69,1.13-2.26,2.32-4.39,2.32-4.68,0-5.68-3.86-5.68-7.34Z"/>
        <path class="cls-1" d="M142.46,362.42h4.33v8c.41-.56,2.04-2.13,4.86-2.13,4.71,0,7.78,3.55,7.78,8.63s-3.33,8.6-8.03,8.6c-2.79,0-4.42-1.57-4.86-2.1v1.69h-4.08v-22.69ZM150.87,381.69c2.45,0,4.2-1.82,4.2-4.74s-1.69-4.83-4.2-4.83-4.21,1.76-4.21,4.83c0,2.6,1.57,4.74,4.21,4.74Z"/>
        <path class="cls-1" d="M164.05,362.27c1.44,0,2.54,1.07,2.54,2.48s-1.1,2.48-2.54,2.48-2.51-1.07-2.51-2.48,1.1-2.48,2.51-2.48ZM161.92,368.7h4.33v16.41h-4.33v-16.41Z"/>
        <path class="cls-1" d="M169.67,362.42h4.33v22.69h-4.33v-22.69Z"/>
        <path class="cls-1" d="M182.85,374.6c1.66,0,2.95.5,3.55.91v-1.07c0-1.44-1.07-2.42-2.98-2.42-1.63,0-3.14.53-4.36,1.16l-1.63-2.95c1.48-1,3.95-1.95,6.46-1.95,5.27,0,6.84,2.76,6.84,6.43v10.39h-3.83l-.28-1.07c-.85.91-2.1,1.48-3.98,1.48-3.33,0-6.15-2.04-6.15-5.49,0-3.23,2.54-5.43,6.37-5.43ZM183.66,382.16c1.63,0,2.82-.88,2.82-2.26s-1.19-2.29-2.86-2.29-2.82.94-2.82,2.29,1.22,2.26,2.86,2.26Z"/>
        <path class="cls-1" d="M196.06,362.27c1.44,0,2.54,1.07,2.54,2.48s-1.1,2.48-2.54,2.48-2.51-1.07-2.51-2.48,1.1-2.48,2.51-2.48ZM193.93,368.7h4.33v16.41h-4.33v-16.41Z"/>
        <path class="cls-1" d="M210.43,372.68c-3.23,0-4.42,2.01-4.42,5.27v7.15h-4.33v-16.41h4.24v2.38c.72-1.63,2.35-2.79,4.52-2.79v4.39Z"/>
        <path class="cls-1" d="M219.5,368.29c5.08,0,7.97,3.39,7.97,8.75,0,.31,0,.63-.03.94h-11.55c.09,2.2,1.85,3.76,4.27,3.76,2.23,0,3.51-1.32,3.98-2.01l2.86,2.17c-.63,1.16-2.82,3.61-6.9,3.61-5.27,0-8.63-3.64-8.63-8.57s3.36-8.66,8.03-8.66ZM223.08,375.16c-.09-2.01-1.54-3.33-3.51-3.33s-3.36,1.44-3.55,3.33h7.06Z"/>
      </g>
      <g>
        <path class="cls-1" d="M8.39,450c0-9.25,14.29-14.7,14.29-20.67,0-2.4-1.57-3.98-4.16-3.98s-3.98,1.76-4.58,3.79l-5.69-1.66c.74-3.24,3.51-8.14,10.54-8.14,6.24,0,10.54,3.79,10.54,9.71,0,8.69-12.07,12.85-13.22,17.57h13.59v5.69H8.39v-2.31Z"/>
        <path class="cls-1" d="M44.74,452.91c-8.09,0-11.14-5.73-11.14-16.78s3.05-16.78,11.14-16.78,11.19,5.78,11.19,16.78-3.05,16.78-11.19,16.78ZM44.74,446.81c3.98,0,4.58-3.79,4.58-10.68s-.6-10.68-4.58-10.68-4.53,3.84-4.53,10.68.6,10.68,4.53,10.68Z"/>
        <path class="cls-1" d="M71.37,452.91c-8.09,0-11.14-5.73-11.14-16.78s3.05-16.78,11.14-16.78,11.19,5.78,11.19,16.78-3.05,16.78-11.19,16.78ZM71.37,446.81c3.98,0,4.58-3.79,4.58-10.68s-.6-10.68-4.58-10.68-4.53,3.84-4.53,10.68.6,10.68,4.53,10.68Z"/>
        <path class="cls-1" d="M107.4,421.47l-2.54,5.27c-.92-.6-2.4-1.29-4.62-1.29-5.41,0-6.57,4.53-6.71,7.4.97-.83,2.91-2.08,5.78-2.08,5.6,0,9.53,3.88,9.53,10.73s-4.3,11.42-10.87,11.42c-8.88,0-11.37-6.2-11.37-14.7,0-10.03,3.01-18.86,13.22-18.86,3.75,0,6.24,1.29,7.58,2.13ZM102.4,441.68c0-2.91-1.53-5.09-4.53-5.09-1.9,0-3.51,1.02-4.67,2.54,0,4.02.42,7.67,4.81,7.67,2.82,0,4.39-1.9,4.39-5.13Z"/>
        <path class="cls-1" d="M112.81,435.39h12.85v5.73h-12.85v-5.73Z"/>
        <path class="cls-1" d="M129.73,450c0-9.25,14.29-14.7,14.29-20.67,0-2.4-1.57-3.98-4.16-3.98s-3.98,1.76-4.58,3.79l-5.69-1.66c.74-3.24,3.51-8.14,10.54-8.14,6.24,0,10.54,3.79,10.54,9.71,0,8.69-12.07,12.85-13.22,17.57h13.59v5.69h-21.32v-2.31Z"/>
        <path class="cls-1" d="M166.08,452.91c-8.09,0-11.14-5.73-11.14-16.78s3.05-16.78,11.14-16.78,11.19,5.78,11.19,16.78-3.05,16.78-11.19,16.78ZM166.08,446.81c3.98,0,4.58-3.79,4.58-10.68s-.6-10.68-4.58-10.68-4.53,3.84-4.53,10.68.6,10.68,4.53,10.68Z"/>
        <path class="cls-1" d="M181.39,450c0-9.25,14.29-14.7,14.29-20.67,0-2.4-1.57-3.98-4.16-3.98s-3.98,1.76-4.58,3.79l-5.69-1.66c.74-3.24,3.51-8.14,10.54-8.14,6.24,0,10.54,3.79,10.54,9.71,0,8.69-12.07,12.85-13.22,17.57h13.59v5.69h-21.32v-2.31Z"/>
        <path class="cls-1" d="M227.12,421.47l-2.54,5.27c-.92-.6-2.4-1.29-4.62-1.29-5.41,0-6.57,4.53-6.71,7.4.97-.83,2.91-2.08,5.78-2.08,5.6,0,9.53,3.88,9.53,10.73s-4.3,11.42-10.87,11.42c-8.88,0-11.37-6.2-11.37-14.7,0-10.03,3.01-18.86,13.22-18.86,3.75,0,6.24,1.29,7.58,2.13ZM222.12,441.68c0-2.91-1.53-5.09-4.53-5.09-1.9,0-3.51,1.02-4.67,2.54,0,4.02.42,7.67,4.81,7.67,2.82,0,4.39-1.9,4.39-5.13Z"/>
      </g>
    </g>
  </g>
</svg>