<?xml version="1.0" encoding="UTF-8"?>
<svg id="Ebene_2" data-name="Ebene 2" xmlns="http://www.w3.org/2000/svg" viewBox="0 0 159.94 222.9">
  <defs>
    <style>
      .cls-1 {
        fill: #b0892e;
      }
    </style>
  </defs>
  <g id="Ebene_1-2" data-name="Ebene 1">
    <g>
      <path class="cls-1" d="M6.49,220.21c-.48.27-.85.54-1.09.57l-1,.58c-.32.19-.62.29-.97.45l-1.08.47-.77.44-.49.17c-.22-.11-.43-.21-.64-.11l-.45-.57c.25-.35.1-.71.18-1.05l.33-1.36c.15-.62.36-1.12.54-1.72l.92-3.04.7-2.22.25-.6.22-.79c.08-.31.19-.49.31-.79l.32-.82c.07-.18.12-.61.22-.78.15-.27.17-.55.31-.85l.3-.65c.09-.2.1-.62.21-.78.18-.28.18-.49.3-.8l.33-.81.29-.73c.15-.38.22-.84.17-1.24.08-.11.34-.3.29-.45-.1-.28.44-1.02.56-1.44l.21-.79.3-.65.32-.85c.06-.17.13-.51.21-.68l.3-.65c.14-.3.13-.56.31-.85.08-.13.17-.65.52-1.35.08-.16.2-.51.22-.67.05-.36.18-.48.29-.77l.43-1.18.76-2.03.7-1.92.93-2.72.25-1.18.86-2.58.8-2.42.48-1.49.23-.8.31-1.04.34-1.12.31-1.05.32-1.04c.22-.71.27-1.5.55-2.6l.73-2.9,1.54-6.39c-.17-.07-.14-.15-.06-.25.13-.19.07-.5.11-.73l.22-1.25.48-2.43.27-1.41.19-1.16.21-1.24c.14-.85.34-1.65.26-2.53l.16-.68.69-5.35.27-2.78.43-5.23.09-1.06.08-2.96.11-1.45.1-2.49c.03-.69,0-1.44.02-2.13l.02-.86v-6.33s-.06-.87-.06-.87l-.06-4.98-.09-1.56c-.07-1.14-.14-2.19-.21-3.34l-.11-1.77-.11-1.55-.12-1.42c-.03-.4-.13-.67-.17-1.08l-.41-4.68-.33-2.46-.97-6.86-.21-1.25c-.1-.58-.4-1.04-.4-1.67s-.23-1.22-.32-1.83l-.17-1.08c-.11-.69-.28-1.32-.4-2-.19-1.11-.46-2.13-.73-3.23l-1.48-6.02-.63-2.4-.38-1.36c-.42-.66-.47-1.35-.68-2.07l-.31-1.04c-.09-.31-.19-.55-.25-.91-.05-.32-.39-.69-.25-1.04.05-.13.2-.21.06-.4-.34-.44-.98-.29-1.29-1.65.08-.06.09-.03.12-.03.08,0,.11-.04.06-.14-.28-.56-.42-1.16-.62-1.76l-.55-1.66c-.11-.35-.16-.59-.19-.98-.04-.48-.78-1.26-.12-1.51-.18-.04-.12-.16-.1-.16l.29.08.91-.26c.53.14,1.07.14,1.59.29l2.45.67,2.16.46.82.21c.18.05.5.05.66.1.35.12.61.14.94.2l3.36.6c.35.06.74.06,1.06.15.33.1.64.03.97.09.54.1,1.05.15,1.61.21l.94.1c.49.05,1.11.17,1.51.17l.93.02c.46.01.89.05,1.35.1l.99.09,3.83.07c.26,0,.49,0,.81,0l2.67-.07,1.69-.1,2.87-.22.99-.1,2.33-.28,2.85-.46.74.33c.08.06.1.04.14,0,.07-.05.15-.15.1-.26-.19-.42-.02-.92-.12-1.34-.21-.85-.17-1.56-.1-2.42l.17-2.04.31-5,.31-6.95.07-3.09.14-6.87c0-.46.99-2.04,2.25-1.54l3.05,1.21c.57.23,1.06.47,1.65.65l1.4.45,1.37.4c.82.24,1.59.51,2.43.69l3.73.83c.17.04.38-.13.56.1.1.13.3.07.41-.04.45.17,1.01.15,1.52.19l1.26.09h1.7s.97.04.97.04c.37.01.65.01,1.02,0l1.49-.08c.63-.03,1.21-.01,1.89-.06l.76-.06c.08.12.15.1.23.03.24-.21.61-.06.86-.08l1.27-.13,1.14-.11,1.46-.11c.18-.01.46-.3.73-.18.38.17.74-.15,1.02-.16.82-.02,2.37-.48,3.98-.61l1.46-.12c.57-.05,1.04-.03,1.61-.18.24-.06.61.1.88-.04.47-.24.98-.13,1.42-.22s.84-.15,1.31-.22l1.26-.19,1.25-.21,2.13-.37c.26-.05.49-.09.74-.13l.98-.16,2.74-.41c.43-.06.8-.25,1.25-.22.03-.15.15-.14.2-.03l1.81-.47s.1-.11.12-.13c.03-.02.1-.02.15.07l.6-.22c.32.14.46-.35.74-.1.2-.16.54-.24.81-.34.46-.18.82-.36,1.36-.41l.79-.34s.11-.09.13-.11c.03-.03.09-.01.15.07.26.04.5-.34.74-.37.49-.06.85-.17,1.27-.43.34-.2.85-.18,1.14-.53.14-.16.56.07,1.28-.49l1.14-.5c.33-.15.62-.17.86-.3.53-.28,1.03-.69,1.59-.85.05-.02.15-.17.18-.15.04.03.09.12.16.07l.84-.58c.34-.03.44-.08.67-.35l1.01-.52c.25-.31.51-.25.74-.41l1.39-1.01s.06.04.07.06c.03.06.16.05.13-.08l1.56-1.05,1.89-1.28,1.88-1.4c.53-.39,1.17-.7,1.64-1.19.12-.12.37-.34.5-.42.29-.14.55-.29.84-.51l.99-.78.42-.41c.17-.16.47-.12.48-.52l.14.34c0-.16.14-.4.24-.39.31.02.32-.26.42-.32.28-.17.36-.27.6-.48l.41-.35c.17-.15.52-.19.54-.57.11.1.13.17.17.19.04.02.09-.15.14-.18l.87-.71.52-.43.49-.39c.29-.23.53-.45.91-.5.11-.18.37-.34.53-.46l.54-.43c.14-.11.24-.3.49-.36.26-.41.64-.36.73-.72.11-.09.18.18.24.1l.1-.15c.07-.1.26-.13.38-.15.03-.3.36-.37.51-.48l.5-.38.62-.5c.35-.28.57-.39.6-.52.03-.11.08.09.28.16,0-.32.34-.31.43-.41.21-.22.38-.32.61-.46l1.08-.68.09-.19s.11-.06.11.06c0,.08-.03.14.08.23-.03-.29.33-.29.43-.42.17-.22.35-.29.56-.41l.66-.39,1.69-.99,2.21-.64h1.02s.1-.05.11,0c.09.4.55,0,.63.6,0,.2.14.15.18,0,.17.43.2.76.16,1.14l-.1,1.12-.17,1.34-.34,1.52-.16.77.04.32-.19.75-.21.72c-.09.31-.03.47-.11.74l-.44,1.64c-.06.21,0,.39-.21.56-.07.05,0,.16.09.11.27-.17-.15.76-.36,1.49l-.2.71c-.22.75-.17,1.22-.46,2.03l-.28.79c-.13.37-.22.79-.21,1.16-.12.65-.38,1.03-.52,1.56l-.22.82c-.05.18-.36.35-.25.66.13.37-.11.61-.21.91l-.26.85c-.09.3-.11.45-.29.68s-.03.65-.1.86c-.11.33-.2.54-.21.9-.04.02-.11.06-.14.1l-.11.12c.02.35-.02.61-.3.83-.01.47-.17.65-.36.93.1.03.16.01.19.01.06,0,.08.08.03.11-.28.19-.26.98-.52,1.4-.21.34-.53,1.44-.45,1.81.02.1-.24.31-.24.38.02.38-.22.52-.29.79l-.19.73-.32.8c-.16.38-.05.76-.23,1.16l-.29.64-.37,1.17c-.24.29-.11.41-.2.69l-.82,2.84-.65,2.02c-.22.67-.16,1.05-.06,1l.29-.14.55-.19,1.02-.07c.16.3-.09.55-.09.73,0,.43-.04.71-.21,1.09l-.25.57-.72,2.02c.1.05.13.1.14.13.01.04-.08.13-.09.2l-.25.99c-.06.24-.28.4-.27.68.01.39-.18.6-.35.89l-.43.74-.3.7c-.32.27-.2.61-.28.92l-.25.87-.37,1.3-.53,1.68-.29.95-.36,1.3-.49,1.8c-.14.5-.29.93-.33,1.46-.03.49-.24,1-.36,1.49l-.96,3.94c-.2.8-.46,1.53-.55,2.35l-.17.68-.42,2.04c-.09.46-.1.9-.19,1.38l-.25,1.31-.44,2.17-.3,1.48-.19,1.17-.19,1.05-.26,1.86-.45,3.44-.3,2.21-.36,2.84-.24,3.08-.54,5.62-.02.65-.06,1.54-.1,1.35-.11,1.77-.1,1.66-.1,2.09.02,2.23-.1,3.45c-.03.92,0,1.79,0,2.71l.06,7.63.18.85.07,2.96.1,2.29.06,1.62.3,2.69.09,1.47.1,1.46.1,1.35.11,1.03.1,1.36.16.79c.15.75.18,1.55.28,2.33l.22,1.77.32,2.5.32,2.17.51,2.93.96,5.69.16,1.09c.31.81.44,1.58.62,2.42l.46,2.16,1.58,7.02c.07.13.28.26.3.45.06.47.23.87.33,1.32l.29,1.25.3.95.22,1.05c.09.41-.58.72-.87.95-.01.23-.3.21-.24.27.11.08.12.13-.07.22-.16.2-.39.21-.58.28v.15s0,.09-.04.12l-.09.11c-.3.36-.7.24-.59.52l-.89.92s-.03.08-.01.18c-.29-.11-.31.23-.49.33-.25.14-.23.39-.36.58-.11.08-.25-.05-.39.21l-.05.09-.03.08-.04.08-.05.08s-.03.08-.04.14c-.05.21-.17.08-.21.05-.14-.09-.12,0-.26.34l-.04.08-.04.08-.06.09-.08.11-.13.09-1.52,1.72c.04.11-.04.16-.08.24l-.04.08-.06.1-.1.11-.53.53s.03.17,0,.18c-.03,0-.12.01-.15.06l-.75,1.12-.37.32-.69,1c-.21.31-.3.55-.49.83l-.58.82-1.51,2.43-.59.96c-.12.19-.24.42-.36.55-.02.31-.22.49-.43.67,0,.16,0,.42-.18.53-.22.15-.18.45-.3.64l-.76,1.28c0,.09,0,.21-.05.3l-.89,1.57c-.07.13-.02.36-.14.52-.4.53-.62,1.09-.81,1.72l-.95,1.9s.02.12.09.21c-.21.08-.22.26-.29.46l-.8,2.15-.14.33-.96,2.5c-.02.05,0,.16,0,.21l-.02.23s-.19,0-.17.06c.03.13.06.25.03.35l-.56,1.64-.56,2.19c-.03.07-.18.06-.16.11l.12.38.68,1.4c.34.71.51,1.47.33,2.21-.12,0-.2.02-.2.09v.2c-.01.06-.05.09-.09.08-.33-.26-1.08-.19-1.34-.28l-.11-.04c-.16-.06-.3-.17-.49-.12-.21.05-.3-.14-.38-.13-.06,0-.13.13-.27,0,.15.13-.03.09-.04.13-.02.11-.13.16-.17-.02-.25-.06-.39.08-.72-.18-.4.07-.4-.36-.58-.38-.31-.03-.46-.11-.6-.36-.17-.31-.63-.35-.87-.53l-1.27-.94c-.21-.15-.31-.27-.51-.45-.13-.11-.46-.16-.57-.35-.19-.33-.48-.34-.74-.53l-.75-.59-1.25-.85-.59-.32c-.26-.14-1.36-1.24-2.06-1.41l-.84-.65c-.38-.11-.52-.25-.82-.5-.22-.19-.71-.19-.88-.54-.1-.21-.39-.21-.53-.29l-1.08-.58c-.39-.21-.58-.51-1.05-.67-.18-.06-.55-.26-.7-.38-.38-.31-.72-.37-1.13-.58l-1.75-.93-2.1-1.03-2.07-.95-1.7-.7c-.14-.06-.22-.14-.37-.2l-1.6-.61-2.29-.84-.65-.22c-.19-.06-.51-.18-.7-.24l-.96-.3-.82-.25-.8-.25-1.55-.43-1.56-.42-7.23-1.51-1.82-.27-1.37-.17-3.14-.3-1.01-.09-.97-.05-4.13-.12h-2s-4.67.25-4.67.25c-.29.02-.51.1-.78.11l-1.08.05c-.45.02-.84.1-1.24.16l-2.04.29c-4.73.67-9.33,1.89-13.86,3.48-.19.01-.29-.02-.37.2-.02.06-.09.06-.15,0l-.12-.13c-.4.36-.89.47-1.37.65-.25.1-.42.25-.7.27-.32.02-.61.19-.84.37l-.11-.11c-.07.16-.15.18-.29.24l-1.28.56-2.38,1.08-.1-.08c-.54.39-1.16.62-1.77.94l-6.18,3.26-.41.35-.15.09c-.06.04-.09-.03-.11-.05-.05-.05-.1,0-.14.05-.28.33-.68.42-1.02.65l-.45.29c-.2.13-.25.26-.51.26-.24,0-.44.33-.65.44l-.39.18c-.34.16-.65.57-1.03.65-.29.06-.37.19-.61.38l-.58.47c-.24.19-.74.23-.94.47-.21.26-.44.25-.65.4-.41.29-.67.59-1.18.74-.37.11-.62.63-1.08.73-.51.12-.85.65-1.32.88-.25.12-.52.09-.7.37-.12.18-.37.4-.59.41-.3.02-.39.23-.6.35l-1.51.9c-.13.08-.25.29-.42.29-.36,0-.47.27-.72.42l-1.27.72-1.15.66-1.32.75ZM68.18,43.72l.08-1.57.17-2.34.23-2.17c-.57.05-.73-.37-1.27-.69.55-.23,1.1.08,1.59.19.18-.11.42-.11.64-.11l1.42.03c.23,0,.4.03.6.06.15.03.39-.19.64-.09s.56-.02.83.01c.25.03.46.2.75.1.06-.02.15-.12.2-.09l.24.16c.1.19.29-.02.09-.09-.14.01-.15-.12-.04-.15.1.07.27.13.33.09l.2-.14c.13.28.3.23.49.24l1.82.13c.29.02.54.02.88.08l.57.11c.1.02.27.15.42.01.26.05.65.35.99.29s.56.07.86.09l1.11.05c.22-.03.12.24-.04.08-.8.21-1.69.16-2.4.22-.75.07-1.45-.07-2.2-.04l-1.46.05c-.97.03-2.04-.13-2.91-.16l-2.42-.08-1.79-.23c-.05.25.1.42.2.43l.47.06c1.31.17,2.41.32,3.75.25.31-.02.69.08.99.08h.88s.94.11.94.11c.57.06,1.01-.04,1.56-.03l2.29.04c.37,0,.62.02.98.01l4.28-.11,2.12-.08,1.26-.09c.8-.06,1.57-.05,2.35-.13l2.27-.23h1.06s2.28-.31,2.28-.31l1.25-.19c.85-.13,1.74,0,2.55-.4.44.14.84.03,1.21-.16.72.11,1.34-.16,2.02-.27l1.01-.16c.54-.09,1.05-.13,1.6-.29.41-.12.88-.05,1.24-.37l.43.13c1.04-.39,2.12-.47,3.17-.8l.8-.25,1.13-.28,1.18-.35c.37-.11.73-.41,1.21-.24.23.08.43-.26.59-.3l1.13-.32c.48-.13.81-.23,1.26-.4l.99-.39c.27-.11.74,0,.96-.27.2-.24.5-.17.69-.26.37-.17.63-.29,1.1-.28.12.19-.05.39-.11.64l-.26,1.09-.46,1.8c-.03.12.09.25-.1.32-.06.02-.21.07-.25-.07.17-.19.21-.45.28-.72l.28-1.08.29-1.25c.02-.08.06-.19.03-.24-.02-.05-.19-.14-.22-.09-.3.44-.81.26-1.14.44-.81.44-1.62.55-2.42.85l-1.23.46-.73.19c-.42-.02-.78.21-1.12.41-.43-.09-.4.31-1.34.26l-.98.34-.79.23c-.72,0-1.53.4-2.56.59l-1.06.19c-.51.27-1.69.3-2.31.44l-1.43.33c-.44.1-.82.05-1.24.13-.99.17-2.32.57-3.27.51l-1.59.28-1.57.21h-1.15c-.82.1-1.6.24-2.4.32l-2.65.25h-1.04c-.79-.01-1.65.06-2.41.09l-2.23.07-2.35.13-4.42.02c-.61,0-1.17-.05-1.8-.06l-2.38-.04-.93-.02c-.82-.01-1.55-.15-2.37-.14-.4,0-.94-.2-1.31-.12-.07.01-.28-.11-.28.04v.32s1.87.03,1.87.03c.19,0,.27.02.4.03l1.36.06,1.17.09,1.24-.02c.28,0,.47.05.74.08.38.04.83-.17,1.21.11.45.34.51-.31.78,0h1.83c.03.24.07.53.08.25,0-.17.08-.25.12-.25h.17c.38.02.9-.11,1.23.14.22.16-.23.52-.23.62,0,.04.11.09.17.02.39-.5.29-1.05.51-.4.09-.18.17-.29.34-.26.24.03.47-.05.71-.05l1.59-.02.64.35c.09-.17.21-.27.33-.42l.12-.14s.04.17.27.15c-.57.28-.74.81-.87,1.43-.1-.13-.22-.18-.28-.15-.27.14-.46,0-.81.1.11-.37.1-.57.08-.93.08-.19-.19-.19-.09.01-.23.21-.31.38-.38.63-.12-.45.09-.63.13-.96-.31.24-.49.46-.61.75l-.07.18c-.05.12.37.06.41.23.07.3-.31.17-.49.64-.06-.22.13-.51-.22-.67.1.43.08.71-.05,1.06-.19.54.46,1.08.2,1.06-.11,0-.28-.38-.37-.25-.03.41.23.53.51.53l1.16.02c.18,0,.28.02.29.16,0,.06-.03.21-.13.25-.22-.22-.47.04-.64.02-.23-.04-1.08-.32-1.25-.09l-.28.38.18-.88c-.05-.38-.41-.58-.77-.43-.18-.23-.11-.46-.15-.75-.14.17-.07.38-.08.59-.24-.05-.21.2-.29.12-.03-.34.36-.69.18-.64-.32.08-.02-.29-.22-.96-.02-.06-.18-.02-.17.02,0,.13-.15.25.02.46-.02.12-.1.11-.16.05-.15-.18-.03-.37-.01-.52.01-.14-.26-.16-.27-.06-.01.14.11.3.1.49,0,.06-.09.08-.1,0-.02-.18-.42-.18-.31-.68-.02-.07-.08-.08-.13-.02l-.2.07c.11.09.2.19.21.33l-.17.1c-.04.12-.15.11-.2-.04l-.28.7c-.19-.08,0-.26,0-.36.02-.16-.21.12-.59.19.04.15.16.15.2.12.03-.02.14-.06.19-.03.02.25-.04.63-.19.82-.13.15-.27.07-.23-.1.05-.1.01-.2-.08-.22,0,.2-.04.27-.15.48.27.07.57.12.83.02.03.05.06.12.1.13.07.03.14-.02.15-.06,0-.05.03-.18-.02-.28-.11-.22.25-.23.14,0l.04.49c.03.31-.33.29-.62.29-.07,0-.15-.13-.16-.08-.04.23.06.33.16.35.08.02.18-.02.32-.03-.08.19.11.34.16.12-.05-.11.03-.15.1-.12l.41.14c.15.05.28.12.44.03.06-.15.21-.1.19.05,0,.12,0,.19.02.25.02.09.15.12.16.02.01-.24.33-.28.71-.2-.1.23-.42.37-.63.53l-.12.48-.03.74c-.03.65-.06,1.22-.26,1.83.26-.06.36.12.42.32l1.87.08c-.08.1-.18.15-.2.35.18-.04.34-.1.58.02.19-.07.17.19,0,.09-.27-.02-.48,0-.7-.11-.22.1-.62.25-.85.02.02-.08.04-.19,0-.21-.11-.05-.12.06-.24.16-.33,0-.86.2-.92.56l-.26,1.68c-.06.4-.14.94.21,1.24.4.33.97.22,1.47.19l.32.19c-.25-.15,1.11.06,1.25-.38.19-.6.14-1.18.24-1.75.07-.43.16-.87-.04-1.28.35-.38.1-.75.25-.83.36-.18.1,1.31-.03,2.28l-.34,2.61-.24,1.85c-.07.54-.15,1.02.13,1.51-.46-.16-.64-.23-1.04-.11.05-.24.27-.23.45-.23.12-.26.25-.63.29-.93l.25-1.88-.5-.59c-.2.24-.4.03-.51-.1-.09.13-.21.16-.27.13-.09-.05-.12-.08-.21-.2.07-.1-.04-.21-.11-.12.04.13-.04.25-.1.26-.42-.03-.9-.09-1.31.06-.34.13-.45.64-.48.95l-.12,1.14c-.05.51-.16.99.39,1.24.33-.11.72-.07,1.09.06.31-.04.59-.08.88.06.12-.04.21.06.11.15l-1.36-.12-.64-.02-2.89-.27-2.1-.23c-.37-.04-.71.05-1.05-.13-.1-.05-.2,0-.27.08-.16-.19-.41-.22-.54-.11.44.27.74.26,1.12.28l1.66.11,1.96.26c.38.05.74.11,1.17.14l1.25.07c.59.03,1.09.18,1.67.21l1.75.09c.55.03,1.16-.2,1.72.02.4.15.81.2,1.23.06.38-.14.76.08,1.13.07.69-.02,1.35-.22,2.03-.05.48.12.92-.02,1.41-.03l1.75-.04c.58-.01,1.11.03,1.65-.02l2.36-.22,2.09-.2.48-.06c.42-.05.79,0,1.25-.07l1.8-.27,2.13-.3.69-.09,1.95-.36.84-.19,2.49-.54,1.32-.29c.15-.03.44.06.59-.11.19-.2.44-.06.62-.12l3.38-1.02c.31-.22.27-.81.37-1.15.13-.45.37-.83.2-1.24-1.22.82-2.63,1.38-4,1.19-3.23-.45-2.98-5.22-1.49-8.04l.44-.83,1.31-1.99c.09.14.03.3.05.44.02.15.22.1.26-.01.1-.29-.28-.59.22-1.08.28-.28.52-.6.84-.78l.04.16-.72.8c.1.18.26.27.48.39-.06.14-.12.25-.05.42l.37-.52.65-.51c.44-.34-.05-.73.03-.85.06-.09.16-.13.21-.1.11.06.06.98.16.68l.08-.23c.21-.16.61-.37.98-.33l-1.24.96c-.25.19-.36.5-.7.64-.07.03-.1.21-.03.24.18.07.29-.16.32-.3.12.1.07.19.07.26,0,.09.11.05.1,0-.01-.06-.01-.2.02-.22l.48-.46.26,1.02.02,1.34c0,.19,0,.33-.09.47-.09.13-.3.05-.42.05-.24.26-.85.32-.89.29l-.16-.13c-.09.31-.39.33-.58.26-.25-.1-.3-.3-.19-.61.04-.17-.12-.2-.11-.03-.55,1.35-1,2.75.02,3.67-.06.15-.11.3-.18.34-.07.04-.24-.07-.31-.14-.42-.5-.18-1.02-.31-1.1-.2-.11-.06.27-.16,1.11-.07.59.41,1.43,1.02,1.64,1.08.37,2.16-.05,2.98-.71l.79-.64-.07-.07-1.2.82-1.06.39c-.61.22-1.62-.03-1.87-.46l-.53-.92c.39-.09.47.26.65.39.33.24.78.2,1.18.1.19.1.22-.16.02-.1-.12-.01-.16-.06-.21-.09s-.04-.08.01-.1l.21-.08c.23-.09.81-.03.83-.36l.05-.69.38-1.52c.15-.59-.03-.96.29-1.19.1-.08.33-.15.48-.06.28.15.54-.09.72-.07.22.03.31.14.61-.04h.85s.45-1.12.45-1.12c.24.6-.48,1.23-.21,1.26.04,0,.1-.06.13-.12l.5-1.29c.38-.67.39-1.24.04-2.07.64.45.61,2,.36,2.8-.37,1.19-.78,2.33-1.66,3.34.33.12.39-.23.51-.4.7-.94,1.34-2.31,1.47-3.45.05-.47.21-.93.06-1.4-.09-.27-.13-.5-.11-.84-.32.03-.4-.28-.48-.47-.38-.07-.71-.24-1.03-.5-.22.01-.51-.11-.72-.08l-.72.12c-.18.11-.22-.16-.02-.09.21-.23.49-.2.69-.27.97-.36,2.27.16,2.55,1.05.49,1.56.05,3.58-.83,5.05.11.27.27-.31.77-.33.23,0,.51.18.82-.02l-.05.79c.7-1.15,1.17-2.35,1.56-3.69.13.38-.04.75-.19,1.12l-1,2.35-.61,1.06c-.42.73-.77.75-.89,1.2-.13.47-.62.77-.91,1.14-.6.78-1.39,1.32-2.09,1.95l-.49,2.13c-.04.19.07.56-.19.65l-2.02.68-1.92.48c-1.18.3-2.29.65-3.5.75l-.39.09-2.6.56-2.75.44-1.22.14-1.84.26-1.63.16-2.01.18-.66.03-1.63.16-1.57.08-2.98.08-1.17-.05c-.54.11-.95.04-1.48.02l-2.46-.07-1.41.02c-.19-.05-.2.18,0,.13.14-.08.32,0,.3.08,0,.04-.11.1-.02.22.13-.15.25-.1.39-.14l.15-.05s.09.11.03.19c-.03.1-.09.25-.15.26-.03-.13-.11-.12-.16-.06.05.11,0,.16-.05.19-.02-.19-.19-.16-.16,0,0,.08-.03.13-.05.18-.04.08-.14.08-.16-.04.07-.1.03-.43-.06-.42-.19.02-.15.27-.07.4.1.16-.17.2-.21.12-.12-.2.01-.55-.16-.32.02.15-.06.27-.16.3-.07.02-.3-.06-.41.03-.03.03-.09.1-.06.27,1-.12,2.05.25,3.19.17.49-.03.91.04,1.41.04h5.6s.97-.06.97-.06l1.77-.06,1.39-.09,2.38-.25,4.44-.53,2.58-.44c.63-.11,1.26-.12,1.88-.36.12-.05.42.14.55-.17.16.14.15.27.23.45.03-.2.03-.36.18-.44.07-.04.22-.02.34-.05l1.09-.27c-.1.18-.11.38.03.46.1.06.19.05.28.22-.07.09.04.21.11.12v-.27s-.02-.25-.02-.25c0-.04-.1-.03-.16,0-.2.05-.17-.11-.16-.21,0-.22.13-.12.25-.13l1.22-.28c.31-.07.62-.27.98-.07,0-.09.03-.2.15-.23l1.38-.35c.2.04.28.57-.07.7.39.21.7-.08.91-.37l.2.15c.05.04.08-.22.13-.27.2-.18.36-.33.49-.67.18.39.22.63.48.84l.19-.89c.08-.35.69-.42,1-.42-.07.5-.68.23-.72.54,0,.05.08.12.13.11h.16c.08-.02.19.04.25.02.15-.04.11-.46.32-.39,0,0,.51.73.75.66.14-.05.13-.11.04-.22-.04-.05-.09-.06-.2-.09.08-.17.07-.28.03-.42s-.2-.06-.29-.07c-.11-.07-.12-.33.06-.41.14.25.59.36.7.17-.23-.64.32-.3.87-.66.11-.07.26.06.18.18-.26.06-.52.19-.7.31.11.12.22.05.25.06.02,0-.13.48.48.61l.13-.33c.19.12.14.26.05.42-.07.14.06.22.1.17.07-.42.33-.43.65-.53.23-.07.45-.47.73-.21l-.35.12c-.14.05-.03.16.02.19.17.11.27-.22.59-.21.09,0,.12.22.21.31.25.23.92-.28.83.21-.01.05-.04.11-.15.21l.23.12c.2-.04.42-.14.5-.44.02-.05.18.03.11.21.18.02.38-.08.42-.21.05-.16.11-.39.06-.61.07-.11.21.02.11.12.05.24,0,.36-.09.54.2-.02.45-.05.58-.17.16-.13-.11-.41-.16-.53.04-.22.25-.45.44-.56.26.24-.4.46-.16.6.06.03.12.05.16-.05.03-.07.06-.14.14-.2.01,0,.05.18.11.17.04,0,.09-.06.1-.1l.04-.21c.03-.13.16-.13.2-.04-.11.24-.19.48-.15.69l2.04-.68c.14-.05.31.03.38-.15l.14-.37c.06-.15.47-.16.4-.54.07-.07.19.03.1.15.11.07.16.14.17.18.01.04-.04.13-.15.17,0,.02.02.08.1.17.18-.17.55-.16.66-.43,0-.15.14-.17.15-.12,0,.03.09.16.14.14l1.44-.54c.23-.09.36-.11.61-.19l.52-.17,1.56-.67c.31-.13.64-.21.94-.35l.97-.45c.11-.05.21.02.15.13-.21.09-.29.26-.23.4.15.33.51.34.41.65-.18.54-.25,1.1-.32,1.62.16.08.26.1.32.04.17-.17.49-.13.69-.26l2-1.23.04-.96c-.08-.1-.31-.28-.21-.45.04-.07.18-.21.15-.27l-.15-.26c.17-.24.56-.6.55-.9-.32-.37.01-.96.24-1.52.12-.29.13-.56.33-.85l.16-.78.33-.8c.13-.31.17-.55.29-.84l.46-1.1c.08-.79.67-1.37.33-1.56.42-.48.45-1.16.67-1.72l.37-.92.19-.61.3-.86c.1-.28.4-.54.44-.9.11-.89.52-1.62.87-2.43l.34-1.23.28-.67c.2-.48.43-.88.58-1.39l.34-1.13c.32-.44.43-.88.62-1.35l.7-1.8.53-1.35.3-.89c.07-.2.19-.61.29-.8l.4-.77.57-1.49.19-.69.77-1.65c.2-.43.18-.97.58-1.34-.1-.38.06-.71.34-1.01l.47-1.55.42-1.15c.17-.47.23-.68.53-1.05l.47-1.41.66-1.65.33-.93.35-.9c.09-.24.14-.63.26-.87.21-.46.32-.9.44-1.38l.25-.96c.09-.37.11-.71-.23-1.01-.08.03-.15.17-.19.14,0-.15,0-.22-.02-.31-.04-.12-.26-.07-.35,0l-.11-.28c-.01.06-.1.14-.16.12-.04-.01-.09-.09-.17-.04-.05.03-.13.1-.17.08s-.08-.06-.13-.15l-.19.28s-.09-.12-.12-.13-.35.12-.54.31c-.01.09-.08.13-.12.08l-.16-.17c-.06.24-.26.28-.43.41l-.6.44c-.25.19-.49.43-.88.35-.25.68-.76.55-.83.98-.09.04-.21-.06-.11-.21-.08-.12-.21.01-.11.11-.08.06-.1.11-.09.2l-.95.49-.16.06-.58.43c-.3.07-.3.31-.46.51-.07-.13-.17-.18-.19-.15l-.14.25c-.23.12-.56.27-.65.61-.04.15-.17.12-.2-.06-.17.15-.17.27-.16.5-.26-.19-.67.28-1.15.63l-.59.44-.43.38c-.23.2-.37.26-.58.51-.13.16-.51.23-.56.55l-.17-.17s-.5.38-.91.77l-.87.82c-.03.07-.09.12-.13.06-.02-.03-.04-.11-.11-.11-.01.15-.09.39-.19.36-.04-.16-.16-.12-.18-.01-.15.15-.3.46-.51.53-.71.03-.48.52-.88.73-.07.03-.18.03-.28-.13l-.39.55-.89.69s-.09.17-.15.14c-.03-.01-.07-.06-.13-.16-.08.18-.1.35-.29.49-.04-.2-.22-.19-.18.01l-.66.59c-.07.07-.09.11-.14.06-.02-.02-.02-.08-.11-.12-.03.47-.6.49-.92,1.05l-.19-.2s-.14.36-.4.57c-.05-.12-.14-.14-.15-.11-.02.04-.06.12-.1.15l-1.57,1.15c-.23.17-1,.43-1.01.9-.12.07-.28.09-.37.27-.05.03-.11-.02-.19-.1l-.81.5c-.02.07-.09.25-.17.24-.04,0-.09-.07-.14-.14-.15.42-.57.49-.85.72-.18.15-.34.27-.53.29l-.15.39s-.28-.09-.32-.03c-.11.15-.28.23-.46.28-.23.06-.54.55-.88.39-.15.02-.26.32-.31.55-.02-.03-.08-.15-.13-.15-.04,0-.11.12-.16.22-.03.05-.1-.18-.15-.15s-.12.16-.11.26c-.03.16-.24.14-.18-.15-.14.46-.72.57-1.34.91l-1,.56c-.12.07-.27.26-.44.29-.13.03-.3.34-.49.24-.04-.02-.12.07-.13.1-.04.13-.04,0-.13-.25l-.34.31c-.23.21-.4.17-.61.29l-.8.5c-.31.19-.59.25-.88.53-.07.07-.29-.05-.36-.23-.33.43-.73.49-1.17.66-.36.14-.81.47-1.2.5-.03.07-.11.25-.19.17-.03-.03-.06-.12-.16-.08-.07.03-.16.09-.21.08-.04,0-.1-.07-.14-.1-.52.45-1.94.77-1.84.83-.04-.03-.1-.1-.12-.15-.1.25-.07.36-.13.25-.12-.24-.62.31-1.15.13-.19.19-.45.26-.75.13-.36.27-.82.23-1.2.37-.25.09-.43.18-.72.11-.06-.02-.2.17-.26.2s-.17-.03-.25-.13c-.08.11-.33.3-.49.31-.45-.16-.78.05-1.26.15l-.68.14h-.49s-.67.16-.67.16l-.85.17c-.52,0-.95.09-1.46.23-.26.07-.67-.02-.89.25-.09-.06-.23-.17-.29-.15l-.27.15c-.93.07-1.29.38-1.5.03-.13.16-.26.29-.42.38-.28-.31-.54-.07-.83-.03l-.94.12c-.39.19-.79.19-1.18.08-.56.31-1.17.22-1.77.31l-.82.12-.19.11-.19-.11-.56.1c-.41.18-1.16.24-1.8.34l-.97.14c-.36.05-.64,0-.97.06-.27.05-.5.16-.86.2l-.88.11-1.06.24-1.42.08c-.13.11-.22.25-.34.29-.35-.2-.73.1-1.03.09h-1.01c-.52-.02-.62.74-.74.07l-.31.4c-.08-.11-.2-.2-.32-.2-.16,0-.26.09-.4.18-.06.04-.23-.07-.31-.16l-.46.63c-.01-.18.04-.36-.18-.48-.1.32-.06.56-.05.91,0,.13.29.15.31-.01.03-.3.28-.48.5-.47-.1.26.16.29.14.09l.28-.36-.15,1.47c-.06-.3.07-.61-.24-.74-.02.36-.01.8.13,1.02.3,0,.45-.25.57-.55.15.27.33.52.57.44.08-.03.17-.18.22-.17s.14.06.2.19c.15-.3.41-.12.6-.14l1.09-.13c.15-.02.31-.11.48.05.3-.17.7-.27,1.05-.26l.8.03.72-.19c.21-.06.53-.05.73,0,.32-.21.67-.1,1.01-.15l1.07-.15,1.02-.12h.71c.36-.02.62-.1.96-.13l1.32-.1,1.71-.26c.18-.03.21-.02.45-.04l1.63-.14,1.24-.13,1.97-.2,1.08-.06,1.86-.23.94-.15.25.13.32-.15c.65.03,1.37.03,1.98-.23.13.07.32.19.45.1.42-.28.82-.2,1.28-.2l.98-.26c.46.05.74-.08,1.16-.18l2.37-.57c.23-.06.58,0,.88-.19.15-.1.55.02.65-.26.05.06.1.15.13.12.05-.03.1-.11.16-.26.2.29.36.1.59,0,.52-.23,1.05-.39,1.62-.48l1.04-.48c.37,0,.58-.19.91-.29,1.14-.32,1.28-.79,1.5-.42.18-.35.51-.56.91-.44.2-.15.43-.21.65-.34l.85-.51c.04.09.12.1.14.09.18-.34.48-.22.7-.33l1.55-.84c.24-.13.42-.24.67-.39.12-.07.43.03.57-.2.11-.18.36-.17.5-.26l1.72-1.09c-.18.6-.8.77-1.18,1.15l-.65.65c-.09-.1-.11-.22-.19-.43-.27.32-.64.6-.63.61l-.16-.12-1.36.79c-.44.26-.77.48-1.29.53l-1.31.7-.5.22c-.57.07-.98.3-1.47.51l-1.06.44c-.19.08-.53.09-.71.2-.31.19-.5.24-.85.32-.19.04-.4.28-.66.25-.39-.05-.66.27-1,.36l-1.56.39c-.45.28-.94.28-1.42.39l-1.93.46c-.28.07-.48.18-.74.12-.17-.04-.57.02-.71.11-.26.15-.6.12-.85.15l-1.94.27-1.43.16c-.43.05-.8.14-1.28.05l-.97.16c-.48-.08-1,.05-1.41.18-.14-.12-.4.02-.54,0-.39-.07-.78.11-1.14.13-1.11.06-2.13.18-3.23.33l-.97.02-1.54.25-1.2.05c-.19,0-.31.04-.53.07l-2.56.27c-.28.03-.59.08-.9.1l-1.11.08c-.35.02-.65.09-1.06.16l-.98.16-1.03.1-1.12.15-1.12.11-1.67.22c-1,.13-1.93.32-2.93.39l-1.76.12c-.57.04-1.08.09-1.67.1h-.82s-.94.03-.94.03c-.9.02-1.77-.13-2.25-.07-.69.08-1.28-.08-1.96-.12-1.41-.08-3.3-.31-4.63-.7-.14-.04-.22.07-.22.16,0,.11.06.11.18.19l.66.44c-.36.17-.57-.38-.79.05-.07-.28-.23-.54-.56-.65,0,.35.26.53.44.73s-.07.47-.06.62c0,.33-.04.52-.27.7.05.07.12.15.15.14s.07-.1.11-.19c.1.18.16.38,0,.63-.03-.07-.05-.17-.16-.21l.1.91-.25-.06s.01.21.05.32c.05.14.23.08.24-.05,0-.08.04-.16.11-.3.2.28.21.58,0,.95-.05-.08-.06-.22-.24-.3l.37,1.69c-.13.14-.24.35-.18.53.03.1.16.21.31.3,0,.14.14.15.17-.03.08.06.1.26.03.32l-.2.18c-.14.12-.1.32-.09.54l-.26-.25c-.02.56.73.53.23,1.05.04.19.18.07.24.07.07,0,.12-.13.11-.26.23.09.17.2.11.38-.05.14-.14.13-.3.07-.07.09,0,.3.09.39-.03.1.07.1.08.03,0-.05.03-.11.1-.14.02.33.05.57-.02.84-.13-.24-.07-.37-.17-.27l-.16.17c-.1.11.21.31.37.35-.13.07-.29.14-.31.22s.15.21.16.29c.02.25-.05.49.13.7.03-.22-.03-.38.11-.54,0,.36.02.59.22.85-.2.03-.31.15-.3.24,0,.07.15.19.22.13.04-.03.06-.19.23-.14-.11.26-.25.38-.2.57.16.62.74.44.53.95l-.25-.22c-.07.46.35.52.61.61-.15.25-.34.62-.16.86.17-.11.25-.2.32-.31.16.36-.33.43-.04.66.08.07.14.2.26-.03.09.36-.2.72-.02,1.03.04.07.24.1.33.16l.07.98c.02.32-.11.6,0,.96.22-.21.12-.47.15-.71l.17-1.15.52-6.4.1-1.32s.05-.03.02-.06ZM57.14,35.28l-.69.29c.1.27-.27.27-.21.04.08-.12.1-.19.06-.26-.19-.33-.65,1.11.09,1.57.08.41.34.62.79.68.31.02.7-.28.73-.69.06-.67-.22-1.29-.78-1.63ZM68.3,43.87l-.2,2.83-.11,1.14c-.03.3-.14.59.13.86-.06-.48.06-.84.09-1.26l.18-2.54.12-1.84.11-1.14c.05-.58.07-1.1.11-1.66l.14-1.99c-.22.05-.27.23-.24.41.09.55-.04,1.03-.08,1.56l-.18,2.55-.08,1c-.06,0-.08.09.01.09ZM77.64,47.35l1.84.21c.47.05.6-.47.65-.82l.22-1.8c.04-.37.04-.97-.49-1.03-.72-.08-1.51-.02-2.17-.32-.4.22-.03-.29-.14-.44-.04-.06-.1-.11-.16-.05-.22.19.09.45-.05.66-.04.06-.28.12-.29.2-.05.26-.19.61-.19.83v1.05c-.12.41-.15.87.03,1.25.15.31.46.22.77.26ZM118.19,45.23c.2-.15.34-.09.53,0,.15-.3.52-.59.54-.94-.19-.67.3-.91.1-1.15-.07.11-.15.17-.19.16s-.11-.08-.2-.17l-.92,1.36c-.13.19-.3.33-.12.56.15-.25.23-.44.45-.55-.02.32-.31.49-.43.75-.07.26.31.27.24-.02ZM73.3,48.73l.52-.67c.04.35-.14.45-.24.78.49-.1.6-.42.66-.83.05-.38.14-.61.01-1-.15-.49-.32-1.08-.83-1.35-.53-.28-1.26-.24-1.6.27.7-.29,1.71-.03,1.81.57-.3-.31-.6-.41-.93-.28.46.63-.18,1.44.64,1.87-.02.23-.19.4-.05.66ZM79.45,50.86c-.05.12-.06.42-.23.47-.27.09-.58.08-.8-.02.21-.05.4.05.6-.16-.48-.23-.94-.16-1.43-.2-.34-.03-.57-.08-.82.29l-.28-.37c-.05.09-.06.24-.05.31.3.33.71.27,1.09.29l1.07.06c.3.02.53.14.78-.06.21-.17.25-.39.29-.71.14-1.12.55-2.81-.41-2.7-.69.08-1.32-.12-2-.2-.59-.07-.75.68-.77,1.12-.03.68-.3,1.26-.09,1.9l.25-2.1c.03-.22.03-.39.17-.51.25-.2,1.33-.28,1.62.32-.07.12-.15.24-.09.41.24-.16.21-.43.16-.75.35.04.7.07.99.19.32.13.25.5.21.79l-.19,1.5-.07.15ZM115.98,50.33c-.1-.39-.61.06-.71-.15s.26-.59.14-1.23c.17-.11.34-.16.47-.36l-1.65.13-.45-.13-1.01-.54c.04.34-.05.63-.28.86-.53.52-.42,1.02-.86.59,0,.35.16.65.42.81.86.54,1.77.7,2.73.35.16-.06.42.03.58-.14.15-.16.39-.2.62-.2ZM79.48,50.66c-.08-.38.04-.71.07-1.04s-1.01-.52-1.72-.48l-.65-.16c-.13-.03-.14.2-.1.26.03.05.09.16.22.16l.81.02c.4,0,.73.12,1.15.08,0,.5.07.93-.07,1.41-.02.07.13.12.17,0l.05-.15s.08-.04.07-.1ZM79.25,54.56l.09-.91.07-.94c.01-.15-.16-.5-.3-.56-.45-.2-.95.04-1.43-.07s-1.11-.38-1.46.11c-.25.35-.18.94-.22,1.34l-.1.96c-.03.28.05.45.26.64.11.09.33.03.52.06l1.39.17c.29.04.61.13.87-.07.15-.12.25-.43.29-.74ZM116.34,69.14c-.18.08-.26.12-.37.21.24.06.44.2.42.32l-.09.44c.21.57.16,1.19-.25,1.65-.14-.03-.2-.21-.19-.35.01-.15.08-.27.32-.3-.11-.14-.18-.26-.12-.48-.22.07-.48.07-.63-.08.05-.11.18-.16.33-.16-.14-.32-.33-.75-.21-1.08-.39.2-.76.53-1.07.92-.03.24.06.61-.13.9-.15.04-.31.04-.46.15.06.1.11.26.06.32-.04.06-.14.1-.26.12.15.36.02.66-.11,1.01.17-.03.25-.22.31-.18l.21.13c.1.06.26-.04.35.04.12.11,0,.22-.12.29-.05.03-.08.15-.21-.04-.02.27-.3.25-.51.42.97.28,1.63-1.19,2.16-.68l1.26-.98,3.13-2.6,1.93-1.61,2.3-1.97,1.61-1.39,2.01-1.74,3.14-2.79,1.53-1.38.9-.87.81-.76.66-.6.82-.82,1.37-1.35,1.2-1.55-2.42,1.11c.07.15,0,.28-.12.28-.09,0-.02-.11-.04-.21-.17-.04-.26.17-.2.19.05.02.19.17.16.22l-.66,1c-.1.15-.14.28-.12.43l-.95,1.11-1.49,1.43c-.07-.17-.18-.21-.21-.18-.03.03-.07.12-.1.16l-.1.16c-.05.08-.11.03-.1-.02,0-.08.03-.16-.07-.25-.04.13-.08.3-.21.39-.11.07-.29-.15-.48.09-.07.09-.04,0-.12-.25l-.63.55c-.15.13-.32.12-.47.28.02-.24.01-.4-.21-.45.03.26-.06.51-.24.6-.05-.03-.15-.14-.19-.1-.03.03-.13.15-.27.14,0-.16.2-.31.39-.37-.34-.16-.86.41-.91.87-.25-.2-.14-.41-.03-.58-.19-.06-.25.06-.31.24l-.14-.34c-.13.33-.23.45-.5.61.06.15.12.28.07.38-.11-.05-.27-.09-.25-.14l.09-.3c.06-.21-.24-.24-.23-.02,0,.11-.04.16-.08.22-.08.11-.05-.02-.21-.14-.13.3-.51.41-.72.59l-1.27,1.05-1.81,1.51-1.03.86-.69.65-.94.74-.73.65c-.69.43-1.2.98-1.8,1.5l-1.62,1.4c-.23.2-.46.36-.18.79ZM110.97,58.3l1.81-.43c-.5-.08-.95.05-1.4.14l-1.92.38-4.36.63-3.36.37-4.3.38-2.21.09-1.7.09c-.42.02-.74.04-1.15.04h-.94s-1.06-.02-1.06-.02c-1.19.11-2.32-.04-3.53-.03h-1.03s-1.95-.04-1.95-.04l-.99-.05-1.25-.11-1.45-.03-1.5-.16-2.24-.21c-1.57-.15-2.99-.41-4.29-.53l-1.03-.09-1.27-.21-1.23-.22-.98-.18-2.08-.34-.68-.15-4.2-.9-.99-.28-1.05-.28-4.03-1.05-1-.3c0,.51,1.15.71,2.01.95l1.95.54,3.44.81,2.36.56,2.74.48,3.97.7c.53.09,1.03.1,1.58.19l1.25.22,1.22.15,1.57.11c1.6.26,3.15.33,4.75.45l2.95.24c.74-.04,1.42-.15,2.18.05.36.09.7,0,1.05.02l1.55.05c.54-.12,1.04-.14,1.57.01l.4-.08c.32.15,1.44.05,2.22.02l1.31-.06.86-.02.84-.02,2.7-.23,1.18-.06,1.25-.11,1.08-.09,2.43-.27,1.41-.19,2.48-.41,1.36-.21,1.7-.29ZM82.15,56.74c.18-.09.25-.02.32-.04.13-.03.17-.34.03-.34-.65.05-1.18-.05-1.79-.09l-1.46-.11c-.52-.17-1.02-.08-1.57-.11-.85-.04-1.64-.37-2.51-.17l1.6.22c.17.02.48-.12.65.17.69-.1,1.32,0,1.9.22.64-.23,1.27.14,1.87.17.26.01.65-.27.96.07ZM83.44,79.97s.08-.06.13-.13c.53.48.86-.21,1.3.06l.03-.81c0-.05.17-.04.18.03,0,0-.16.32.02,1.01l1.33-.05c-.25-.13-.52-.05-.49-.12l.09-.23c.46.25,1.01.19,1.52,0-.31-.07-.44-.07-.55-.24-.08-.12.02-.29.04-.46.02-.25-.41-.19-.56-.25-.11-.05-.24-.29-.4-.27.07-.21.15-.34.24-.37.12-.04.14.1.1.12-.03.02-.05.08-.07.14.16.1.31.03.3-.11-.02-.3-.21-.39-.21-.42,0-.07.11-.06.11-.02,0,.03.14.06.15.04.08-.27.1-.78-.28-.9.05.33.13.66-.26.9-.02-.35-.07-.62,0-.9.04.14.03.25.13.32.09-.2.06-.37-.07-.49-.08-.08-.25-.14-.43-.16-.31-.02.11-.26.03-.39l-.14-.23c.08-.14-.07-.2-.1-.14-.21.53-.67-.01-.9.03-.87.14-1.3-.17-1.58-.16-.91.03-1.88-.07-2.74-.14l-1.99-.17-.96-.09-1.63-.16c-.47-.05-.95-.11-1.41-.16l-.85-.1-1.05-.07-2.4-.37c-.45-.07-.88-.07-1.33-.14l-1.63-.27-3.63-.61c-.55-.09-1.05-.07-1.58-.33l-.41.02c-.35-.16-.69-.16-1.05-.23l-3.15-.67-2.19-.43-4.42-1.08-.89-.27c-1.23-.27-2.4-.58-3.6-.96l-.71-.22-2.83-.79-2.39-.75-2.38-.79c-.7-.23-1.32-.5-2.01-.77s-1.45-.41-2.15-.77l-1.17-.39-1.75-.76c-1.44-.62-2.92-1.04-4.31-1.78l-.6-.19-.8-.44-3.61-1.59c-.49-.22-.89-.49-1.36-.71l-2.41-1.15-2.59-1.25c-.27-.13-.47-.25-.77-.39l-1.23-.59c-.28-.13-.5-.14-.82-.27.15.23.14.4.27.61l.31.5c.07.3.15.47.38.66l-.27-.06c-.05-.01-.09.21-.04.24l.16.1c.07.04.24.15.21.2l-.16.25c.28.19.53.5.29.89.25.07.38.19.4.35,0,.1.06.27-.13.31.02.45.28,1.24.72,1.62-.14.16-.35.37-.12.63-.15.06-.24,0-.4.24.49,0,.69.44,1.04.61l2.06.97,1.83.89c.91.44,1.84.79,2.79,1.16l.75.29c.9.46,1.87.63,2.76,1.1l.89.46,2.89,1.05,2.02.69c.75.37,1.51.55,2.3.82l1.06.36.5.16c.43.14.93.23,1.36.4l.97.38,2.35.68,1.46.39c.39.1.66.26,1.02.35l2.24.58,2.6.71,2.13.48,1.83.47,1.99.4,1.28.29c.55.27,1.16.24,1.74.36l1.84.35c.72.14,1.4.26,2.12.38l3.07.54c.15.03.3-.04.46.08.06-.02.19-.16.26-.1.08.07.16.16.29.13l.25-.07s.06.08.04.19l2.03.28,1,.1c.31.03.4-.01.68.1s.7.09,1.03.06c.18-.09.23.14,0,.14.35.22.69-.13,1.05-.09l1.11.12.21.19s.1,0,.17-.12c.54.2,1.29.46,1.43.14.18-.02.22.15-.01.2l1.02.06c.45.02.9.12,1.32.04.05.09.14.13.17.11.03-.02.08-.07.14-.16.01.14.1.3.2.31.13.01.3.03.47-.05-.05-.05-.19-.03-.24-.23l.69.12c.08.32.42.14.58.04.1,0,.36.02.44.09.19.2.75.23,1-.07.2.3.51.47.79.26.28.22.66.2.99.11-.14-.35.23-.23,1.01-.08l.1-.4c.06.23.21.58.51.69.33.12.81.02,1.13.02.03-.04.02-.12.01-.15-.03-.16.23.15.29.13ZM107.64,61.63c.4-.16.68-.09,1-.14l2.27-.37.86-.19.61-.12,2.25-.42.86-.17c.44-.09.78-.18,1.25-.27l1.65-.33,4.4-1.13,2.46-.74c.62-.19,1.03-.37,1.81-.53.41-.08.81-.4,1.27-.36l.24-.37c-.23,0-.33.1-.54.25l-.09-.35c-.16.41-.36.32-.58.39l-3.03.92-1.01.34-3.48.87-1.01.24-2.91.68c-.44.1-.81.22-1.26.3l-1.58.3c-.38.07-.64.28-1.09.18-.3-.07-.7.11-1.01.16l-2.89.47-3.48.54-1.47.19c-.11.01-.06.16.02.2s.09,0,.13-.06l2.45-.28c.5-.06,1.09.04,1.58-.27l.29.08ZM60.15,58.57c-.81-.11-1.46-.34-2.18-.57l-.77-.25c-.58-.19-1.08-.24-1.62-.49-.44-.21-.98-.16-1.38-.56-.09-.09-.22.22-.18.34.02.08.15.22.28.25l3.07.77,1.55.45c.59.17,1.14.46,1.82.33-.16-.08-.35-.24-.59-.27ZM59.56,59.92c-.22-.19-.5-.33-.8-.37l-2.3-.47c-.23-.05-.61.12-.76-.16-.08-.16-.12-.26-.33-.21-.18.04-.12.4-.77.27.02.13.15.23.28.25l2.68.49c.66,0,1.23.03,2,.2ZM41.86,60.61l2.54-.24,2.23-.31c.06,0,.19.11.26.02.03-.04.09-.1.05-.15-.02-.03-.11-.14-.17-.13-.71.17-1.38.22-2.08.32-.16.02-.34.09-.49-.05-.81.29-2.53.24-2.5.42,0,.03.07.14.17.13ZM52.74,66.12l-2.17-.73c-.52-.18-1.08-.24-1.62-.45-1.29-.51-2.6-.8-3.92-1.19-.52-.15-.98-.35-1.5-.49l-3.34-.96-.07.08,2.73.94.77.27,2.35.69.8.24c1.19.36,2.32.75,3.52,1.05.82.21,1.56.62,2.45.55ZM51.37,67.33l1.02.07c-.03-.06-.09-.24-.15-.26l-1.02-.34-3.59-.97-2.13-.69-1.46-.4-1.22-.43c-.71-.25-1.35-.52-2.07-.75l-2.13-.7c-.39-.13-.71-.4-1.14-.28.36.22.48.52.52.82.71.35,1.56.59,2.35.8l.81.42,1.75.52,1.97.63c.45.15.91.21,1.38.4s.95.31,1.45.43l1.55.39.02-.16-.52-.07v-.14s1.6.37,1.6.37c.24.06.43.32,1.01.36ZM60.4,65.81c-.28.08-.44.16-.69.27-.3.14-.73.06-.96.45.47-.08.83-.2,1.2-.34l1.34-.49c.16-.28.28-.27.52-.36l2.4-.91.84-.32,2.55-1.07c.16-.07.24-.2.17-.31-.04-.06-.15-.16-.22-.2-.06-.03-.13.24-.2.26l-1.26.45-.29-.11c-.11-.04-.01.09,0,.29l-1.69.61-1.18.36c-.38.23-.68.43-1.14.38-.16.02-.37.25-.49.35-.1-.24-.2-.43-.47-.41.23.27.36.56.32.89l-.74.2ZM118.03,65.63c.13-.12.55-.4.67-.11.01.17-.35.14-.46.16-.05,0-.07.24-.12.26-.14.07-.35-.37-.45-.27-.04.04-.19.16-.16.2l.13.18c.01.18-.09.33-.04.42.07.1.35.16.46.07l1.21-.96c.23-.18.38-.5.51-.64.32-.16.6-.27.91-.57l.71-.7c-.24-.06-.37.04-.63.09.09-.27.28-.44.17-.75-.07.18-.12.45-.37.51-.09.02-.28-.16-.27-.23l.06-.37c.02-.12-.16-.12-.21-.05-.24.38.08.63-.04,1l-.22-.53c-.12.09-.2.32-.29.36l-.63.27c-.22.1-.4.06-.56.31l-.32-.79c-.1.3.02.49.04.7-.11.1-.18.04-.18,0l-.02-.32c-.26.14-.54.33-.66.72-.08-.11-.07-.24-.07-.44l-.43.4c-.19-.05-.31-.17-.54-.13.16.18.3.29.27.41l-.11.39c.07.19.44.07.54-.09.06-.02.17.08.16.12l-.08.29c-.02.08.29.11.41.06.08-.03.05-.11.19-.23.05-.09.2-.18.23-.12.02.05.07.25.17.35ZM56.51,64.99c.33-.35.69-.26.99-.39.44-.18.84-.36,1.31-.36,0-.11.05-.21.09-.21l.23.02c.23.02.54-.04.67-.21l.17-.22s-.07-.12-.14-.18l-1.74.52-2.21.8c.16.35.08.53-.05.79-.04.09.16.22.2.15.03-.04.16-.11.17-.21.04-.3.04-.56.2-.8l.1.3ZM49.2,148.12l.56.5.65.37.69.47,1.78,1.03.51.28.63.26,1.62.77c.23.11.48.25.62.43.46.02.81.27,1.19.42l1.4.56,2.95,1,1.41.38.97.21,3.37.63.94.21c.04-.13.17-.15.2-.02l2.22.19.95.04,1.83-.02,2.9-.13,2.13-.29.83-.19,1.16-.21.9-.23,1.01-.24.95-.29,1.25-.41c3.15-1.05,6.09-2.54,8.68-4.65l1.6-1.3,2.38-2.21,1.75-1.99,1.56-2.08c.9-1.19,3.32-5.53,3.24-6.01-.04-.26.25-.38.33-.52.02-.61.47-1.36.63-1.91l.33-1.17.68-2c-.04-.14-.19-.35-.02-.52.1.02.23.12.38-.03-.14-.11-.31-.29-.26-.36l.23-.37c-.16-.21-.3-.47-.08-.72.09-.1.27-.16.13-.46.05-.08.15-.06.13.05.09.17.24-.05.17-.1-.04-.03-.15-.14-.12-.19.24-.11.51-.3.55-.45-.08-.12-.27-.03-.31-.03-.16-.09-.23-.46-.18-.72.02-.1.15-.07.15.04.1.67.4.02,0-1.17,0-.19.17-.24.21-.05.03.16.01.29.17.43.33-.49-.1-.67-.23-.98l.39-.06c-.09-.23-.11-.42-.03-.59.07.17.18.21.27.17.07-.04.13-.2.1-.3-.02-.06-.11-.06-.26-.06-.2.01-.14-.21.03-.13.14,0,.31.02.38,0,.07-.02.12-.19.02-.38-.05.17-.2.2-.18,0v-.77c0-.09.11-.12.16-.09.04.02.08.08,0,.16-.1.11.03.19.1.13.2-.17.62.19.8-.1.22-.36-.44-.43-.31-.73-.06-.22-.09.05-.4.09.05-.18.22-.26.37-.42-.12-.19-.09-.41.04-.43l.51-.1c-.54-.43-.87.21-.94.07l-.09-.17-.13-.14s0-.15.05-.14l.17.07c.26.11.5-.22.85-.58-.12-.09-.21-.02-.22.08-.02.06-.15.1-.11-.07-.08.05-.32-.13-.05-.16.69-.1.25-1.07.65-.87l-.03.52c0,.09-.03.11,0,.16.02.03.08.09.11.09.04,0,.09-.12.04-.23-.06-.2.19-.19.14,0-.08.24,0,.38.17.46.06-.25-.05-.38-.06-.53.13.01.17.06.21.08.07.03.11-.06.14-.08.03-.03.06-.1-.05-.11l-.19-.02c-.25-.02-.35-.14-.34-.33,0-.1.05-.3.25-.22-.12.14-.17.25-.14.31.03.06.11.08.16.05.06-.03.17-.28.11-.36l-.09-.13-.15-.14c.2-.27.3-.57.19-.93.17,0,.29.02.39-.04-.12-.21-.14-.38-.37-.42l.2-.76c.02-.07.02-.26.13-.32.04-.02.13.06.16.12l.07.18c.03.08.13.12.19.09.2-.12-.12-.52-.65-.85.22-.11.44-.15.47-.27.16-.57-.3-.97.21-1.47-.27.04-.39.17-.57-.02l.7-.34c-.19-.42-.11-.92-.06-1.34-.1-.06-.3-.2-.21-.29.21.04.34-.16.32-.25-.02-.07-.15-.18-.3-.28.51-.53.02-1.06.07-1.19s.55-.14.5-.34c-.18-.05-.36-.11-.41-.21-.06-.12-.03-.45.07-.42l.18.07s.07-.12.04-.15c-.32-.35-.1-.74.03-1.43-.26-.17-.43.24-.46.03-.03-.3.18-.23.43-.41-.1-.33-.02-.82.13-1.2-.07-.08-.12-.04-.21,0-.09,0-.15.18-.18.13-.06-.1-.04-.31-.07-.36l-.06-.12c.07-.05.12-.05.18-.02l.15.08s.1.05.15-.04c-.12-.12.18-.5-.16-.55.07-.67-.1-1.02-.04-1.04l.23-.07-.32-.31c.11-.21.21-.47.23-.71l.05-.78c-.07-.43-.23-.81.02-1.23.03-.05.07-.11.04-.14-.02-.01-.09-.1-.09-.13l-.04-.95.04-1.22c.01-.28.4-1.17,0-1.1-.04,0-.08-.08-.05-.14l.2-.33c.04-.07,0-.21-.04-.24-.03-.02-.07,0-.18-.02l.33-.49-.18-.13c-.1-.01-.16-.1-.08-.18.09-.02.21-.09.24-.14.02-.03-.06-.12-.09-.14-.09-.06-.05-.13,0-.18.2-.25.08-.52.03-.78-.12-.58.32-1.07-.11-2,.08-.15.2-.31.38-.45.16-.06.03-.23-.18-.17.06-.31.08-.54.05-.85-.46.05.25-.34-.03-.61-.06-.06-.15-.15-.11-.19l.13-.14c.11-.12-.01-.32-.05-.48.06-.03.23-.01.2-.14l-.12-.58v-.78c-.02-.38.24-.75.17-1.14-.01-.06-.14-.14-.13-.19.01-.04.07-.11.12-.15.1-.08.05-.18,0-.2-.03-.02-.1-.07-.13-.15.1-.04.27-.23.16-.34-.04-.04-.2-.1-.17-.2,0-.03.08-.04.17-.01.16-.57-.04-1.16.13-1.47.06-.1.12-.24.08-.31-.04-.08-.2-.16-.27-.19.25-.23.22-.46.26-.75.01-.12.2-.25.04-.44-.15-.17-.06-.37.08-.52-.02-.1-.21-.33-.08-.46.03-.03.15-.15.13-.21,0-.03-.08-.04-.16,0-.08-.04-.06-.19.09-.18-.04-.31-.02-.58.08-.89-.24-.06-.46-.21-.66-.18l-1.43.18-1.09.04-2.87.16-.91.04-.88.07-2.59.05-1.64.06h-.76s-.94,0-.94,0l-.83-.04-1.37.09-1.5-.05h-1.06s-3.46-.04-3.46-.04l-1.35-.09-2.67-.09c-.99-.03-1.94-.07-2.96-.16l-1.62-.14-1.6-.07-2.38-.23-1.13-.1c-.63-.05-1.16-.16-1.8-.2l-1.43-.11-1.58-.19-3.12-.41-3.43-.51-.69-.04-1.77-.34-1.07-.18-3.34-.6-3.64-.72-2.89-.65c-1.11-.25-2.18-.47-3.29-.76l-.81-.21c-1.16-.3-2.26-.58-3.42-.87l-1.99-.5-.94-.3c-.48-.15-.91-.24-1.35-.39l-1.03-.37c-1.01-.21-1.93-.5-2.9-.83l-2.56-.89c-.79-.27-1.56-.48-2.36-.77l-1.66-.61-1.5-.58-3.16-1.13c-.37-.13-.69-.35-1.08-.47-.52-.16-.98-.38-1.47-.6l-1.13-.49-3.55-1.49-1.25-.62c-.24-.12-.6-.03-.8-.47-.23.45.08.62.34.82.16.12.31.98.35.89-.02.05-.09.11-.17.21.2.09.41.3.36.54-.07.33.21.53.25.76.08.48.25.82.34,1.19l.56,2.32.26.38c-.11.06-.17.15-.17.2,0,.06.14.16.2.19l.2.93c.12.58.15,1.19.6,1.67-.14.14-.16.3-.11.47l.28.9.67,2.8c.14.57.44,1.07.24,1.66.3.39.35.83.34,1.29.16.16.17.35.14.54-.05.4.19.74.26,1.09l.2.95.25.92c-.12.55.06.96.19,1.48.06.24,0,.56.08.87l.24.99.18,1.03.12,1.01c.01.11.15.18.12.24-.02.05-.09.16-.17.24.32.09.33.29.34.57l.06,1.11c.01.22.26.44.07.74-.08.13.06.29.08.41l.4,2.21v.74c.13.32.17.7.13.99l.14.24s-.03.12-.14.19c.21.52.3,1.08.29,1.66.2.04.19.25-.1.21.31.22.23.97.33,1.82l.11.92c.05.37,0,.85.12,1.2s.04.58.08.91l.18,1.65c.04.32.05.62.08.93l.05.6.15,1.63c.02.27.02.46.01.68,0,.13.23.74.04,1.11l.16.57c-.14.34-.03.68.1.94l-.18.19s.12.11.26.17c-.21.26-.16.7.05,1.02-.16.43-.18.83,0,1.27-.04.18-.11.41-.1.59l.06.8c.04.57.24,1.2.14,1.77,0,.06.22.18.18.22-.04.04-.13.09-.27.15.51.96-.05,1.61.19,2.18.19.45.03.91.04,1.34s.12.75-.06,1.2l.06.55c.01.13-.1.29-.01.35l.27.17c-.14.06-.31.14-.3.2l.04.25c-.12.32.03.64.02.94-.02.43-.02.73.06,1.12.04.19-.08.46.2.61l-.34.2c.32.11.03.39.03.51.09.29.11.63.11.95l-.02,2.06c0,.22-.15.51-.03.73.14.25-.04.4-.02.64l.07.94c.01.14-.08.29-.04.41.03.08.13.16.31.22l-.58.36c.64.66.28,1.57.28,1.83v.85c.15.37.14.72-.12,1.01.25.23.18.48.01.67.08.08.2.21.18.29-.02.1-.12.18-.21.21.15.17.28.14.43.21-.24.08-.35.14-.46.4l.36.1c-.1.15-.23.17-.43.2.19.3.3.74.01,1,.16.02.42,0,.56.09.05.36-.16.65-.54.89.19.1.29-.05.5.01-.14.14-.27.25-.31.37-.06.18-.06.39.15.55.34-.52.3-1,.51-1.06.15-.04.32.04.23.19-.04.07-.18-.04-.24-.05-.08-.02-.06.15.06.37-.15.19-.38.35-.41.69l.31.17c-.03-.25,0-.41.18-.54.06.25.08.38.18.53.25-.29.59-.21.88-.33.25-.11.42-.4.77-.37.1,0,.19.19.24.3.11-.19.25-.25.36-.18-.12.12-.11.29-.06.37.04.06.21,0,.28.06l.16.14s.14-.1.13-.15c0-.04-.02-.11-.07-.2l.36-.25.19.41.2-.42s.07.07.06.06c.02.3-.16.52-.3.84l.37.12c.09-.2.23-.28.46-.31l-.43-.3c.37-.07.52-.14.58-.41.03.09.06.19.1.2.03,0,.1-.02.12.07-.12.07-.18.18-.13.26.04.06.12.11.17.05.04-.07.05-.16.18-.26,0,.18.2.5.43.37.11-.06-.17-.29-.27-.27.01-.19.2-.25.32-.19l.41.2c.18-.09-.03-.39-.15-.51,0-.11.14-.09.18-.08s.06-.13.13-.16c.01.61.26,1.14-.04,1.12l-.34-.03.13.7.12-.61c.25.22.08.39.07.63.35-.22.5-.44.81-.51-.22-.09-.34-.05-.54-.06.03-.28.24-.47.53-.39l-.23.28c.22.03.34.03.55-.03-.24-.13-.31-.4-.15-.63.23.1.12.28.19.33.02-.18.05-.24.09-.28.03-.03.13-.02.15.04.01.04-.04.11-.09.19-.06.16.12.2.15.04.28-.12.48-.07.8-.06-.06-.13-.17-.13-.34-.13.16-.16.37-.1.5.11.06.1.24.24-.05.4.11.13.26.24.49.25l-.09-.43c1.08.26,1.17-.34,1.29-.3.09.03.17.12.21.21.05-.11.06-.19.06-.25,0-.04.12-.13.2-.02,0,.11-.16.28-.09.49.11-.08.14-.19.24-.32l.19.53c.32-.01.63-.2.74-.49.15-.02.34-.03.48-.13-.01.27-.24.29-.35.35.09.24.26.18.53-.05.03.17-.1.27-.02.29.29.05.22-.5.68-.43-.08.44.04.79.24,1.15.17-.06.24-.2.34-.41.39-.07.24.57.64.63.13.02.28-.02.43-.13-.1-.26-.18-.65,0-.91l.53-.29c0,.18-.03.31.1.42,0-.19-.03-.44.07-.51.08-.06.3-.03.36.04-.36.14.06.42-.18,1.02.35-.13.33-.37.29-.68.25.23.43.15.63.1.12-.01.29.22.52,0-.08.21-.13.25-.08.46.12-.09.15-.16.23-.32.08.15.21.12.32.14.21.04.22.01.33-.2.09-.09.37-.15.56-.13-.1.13-.29.23-.29.41.41,0,.37-.38.63-.59l-.22.76c.22-.13.26-.33.33-.51l.13.27s.15,0,.19,0c.09.08.17.2.15.35-.26,0-.56.08-.59.33.41-.16.68-.35.96-.3-.03.38.15.7-.05.99.16.08.28-.05.27-.14l-.02-.22c.07-.19.21-.09.31-.02.09.06.18.11.12.27-.02.06-.03.11,0,.14.02.03.07.08.1.1.03.02.09-.17.12-.17.26.01.51.29.58.57l.45.24c-.02.06-.03.2,0,.19s.15-.04.24-.11c.47.77,1.18.66,1.06,1.27.12-.08.14-.17.23-.33l1.07.89s.04.24.09.24.19-.11.29-.03ZM54.88,67.85s.24-.07.23-.12c-.04-.21-.29-.23-.42-.28.72-.29.84.1,1.08-.04.09-.05.32-.19.16-.36l-.44.14c-.07.02-.07-.29-.14-.33-.52-.33-1.11-.22-1.68-.24-.48-.01-.93-.24-1.4-.11.67.61,1.46.72,2.34.8-.21.17-.41.16-.73.26.59.43.2.98.89,1.06-.36.31-.66.21-1.03.37.43.26,1.08.5,1.22.39.13-.1.34-.16.33-.35-.21-.12-.38-.2-.45-.3-.1-.14-.03-.87.04-.89ZM102.86,69.22c.04.28.5.18.47.88l.14-.26s.12-.03.21-.01c.32-.42.53-.97.46-1.51l-.14-.94-.16.17c-.08.08-.44-.17-.64,0-.05.04-.09.12-.16.26-.09-.07-.11-.16-.29-.21.17.32-.03.52-.16.67.33.4.98.05.7.42-.14.19-.48.18-.44.52ZM112.33,74.41c.56.08,1.06.05,1.57-.12.04.23-.13.27-.29.3-.95.2-.48,1.23-.68,2.49l-.1.63c-.07.45-.08.94.11,1.38-.05.17-.16.21-.23.01-.08.21-.19.27-.38.34.37.13.6-.02.95-.07.51-.08,1.3-.18,1.54-.73.19-.44.26-1,.26-1.47v-.72c-.01-.49,0-.88.15-1.37l-.06-.65c.14-.43.07-.82-.07-1.2-.07.16-.2.29-.32.28-.37-.05-.66.14-1.01.22l-1.24.27-2.27.28-2.01.27-1.91.19c-.69.07-1.42-.13-2.09.31l1.96-.14.95-.08,1.14-.07c.35-.02.89-.09,1.32-.14l.71-.08,1.18-.06.83-.05ZM114.63,164.68c.03.23.15.49.13.66-.02.26-.14.78.02,1,.03.04.19-.05.22-.04.05.02.05.09-.04.13-.42.72.46,1.28.07,1.76.1.3.35.64.16,1.09-.12.27.16.62.27.92,0,.24.23.09.16-.06.11-.15.21-.16.33-.1.13-.19-.11-.34-.12-.49.01-.13.05-.24.01-.29-.04-.06-.22-.09-.28-.12-.2-.12.35-.3.13-.63-.2-.16.16-.38,0-.59-.09-.07-.13-.22-.11-.3,0-.04.05-.1.12-.03.03.03.1.09.2.04-.42-.63-.13-1.05-.28-1.1l-.26-.09c-.06-.02-.08-.09-.08-.11.17-.08.29.09.36.07.13-.04.05-1.19-.2-1.9.09-.54-.04-1.08-.04-1.64v-1.03c-.14-.34-.16-.56.02-.81-.16-.16-.16-.38-.17-.66l-.04-.77c0-.11-.14-.3-.11-.39.03-.06.21-.14.14-.27l-.16-.3.14-.24-.15-1.25-.04-1.05-.03-.85-.07-.89c-.03-.35-.1-.63-.11-.87l-.05-2.08-.09-1.34-.07-.53c.05-.5-.04-.94-.06-1.45l-.05-1.49-.11-.94-.02-1.4-.09-2.1-.1-1.16v-.92s-.05-.9-.05-.9l-.11-2.84-.08-1.84c-.03-.56,0-1.16,0-1.71l-.02-.84-.08-2.18-.05-1.39v-1.65c-.08-.51-.02-.95-.02-1.46v-1.75s-.02-.86-.02-.86l-.05-.88v-8.64s-.05-.9-.05-.9l.12-6.34.04-3.43.05-.62-.04-.97.08-3.11.14-4.19.05-1.59.18-4.34.08-1.8.12-2.47.14-2.36c.03-.5-.02-.96.16-1.52-.59-.05-1.06.24-1.59.38-.37.1-.57.19-.78.44-.22.26-.1.51-.14.78l-.11.73c-.07.48.05.82,0,1.28l-.11,1.07-.03.64-.09,1.39c-.03.5-.08.97.06,1.44.09.3-.09.5-.1.75l-.06,1.86c-.01.41-.06.81-.07,1.24l-.08,2.27c-.11.08,0,.17.11.11l-.14,1.21-.02,1.55-.05,1.67v1.04s.08,1.6.08,1.6l-.1,2.44c-.02.49.21,1.04-.15,1.47.25.11.1.38.15.51.14.45-.02.71,0,1.35l.03,1.14v.35s-.06,2.16-.06,2.16c-.02.57.2,1.13-.16,1.61.15,0,.19.02.21.04-.05-.05.03.78.01,1.16l-.05,1.29v.94c.01.58-.13,1.12.11,1.7.15.37-.16.86-.09,1.24.05.27.09.43.1.7v1.7s.04,2.27.04,2.27l-.02.85c0,.4.22.93,0,1.33.13.17.13.37.13.61v.9s.08,1.14.08,1.14l.02,1.37c0,.26.09.53-.09.79.18-.03.2.03.2.13l.03,2.21.22,1.62c-.13,0-.21-.02-.23.03s.12.19.13.25l.13,2.63.09,1.41c.02.37.15.75.02,1.11.12.05.18.2.13.26-.03.04-.15.1-.12.18l.08.16s-.05.1-.1.16c.24.6.22,1.51.24,2.32l.03,1.14.11.93.11,1.93.1.83.15,2.52c.02.37-.08.63.05.99.16.44-.02,1.06.26,1.5-.17.09-.19.24-.18.37,0,.06.01.14.18.13l.09,1.48c-.25.05-.16.1.14.27-.05.03-.11.08-.16.13-.03.03.05.13.1.18-.07.26.02.6.04.9l.06.92c.02.32.05.51.09.81l.16,1.49.17.89c-.13.46.07.91.1,1.3l.09,1.17.28,2.31ZM92.12,80.34l1.43-.03s.07-.06.06-.06c-1.01-.22-2.22.17-3.23-.18-.05.12-.2.17-.25.14-.03-.02-.06-.12-.1-.26-.27.2-.85.31-1.2.09-.25-.16-.45-.39-.86-.2.16.2.37.15.66.21-.61.15-1.21,0-1.88-.05,0,.09.09.21.2.21l1.12.02c.57.16,1.05,0,1.6.03l1.55.08c.29.01.53.02.9,0ZM115.48,92.5c.1-.03.09-.09.09-.16l.05-1.68.11-2.06.1-2.71.1-1.76c.04-.73.07-1.45,0-2.15l-.12,1.78-.11,1.76-.04,1.35-.05,1.36-.11,1.97v2.31ZM122.93,88.49c.15.03.16-.05.15-.11-.01-.05-.06-.12-.11-.14-.15-.07-.1-.21,0-.25.04-.02.09-.02.21,0,0-.39.08-.8-.2-1.17.36-.16.42-.62.16-.94.17-.18.22-.42.22-.72l-.27-.11c.17-.07.23-.2.22-.3,0-.06-.1-.15-.2-.22,0-.09.18-.12.26-.09.07-.17.07-.47,0-.61-.17-.03-.22-.19-.18-.33.02-.08.08-.16.26-.11-.12-.19-.13-.21-.19-.37-.29.24-.41.69-.12,1-.14.13-.2.33-.17.56.07.48-.03.9-.08,1.36-.04.4.03.76-.11,1.16-.08.22.01.48.17.64-.13.13-.19.27-.19.49v.83c0,.44-.16.84-.04,1.23l.33-.19c.08-.04.08-.35-.03-.39-.06-.02-.17.18-.32-.03.58-.36,0-.85.24-1.19ZM116.1,149.8l.14,1.09c.21-.53,0-1.09-.03-1.66l-.09-1.88-.21-2.31-.07-2.03-.11-2.27-.1-2.7-.09-2.93-.14-2.96-.07-2.76-.07-8.97-.08-1.39.02-11.82c0-.76.18-1.46,0-2.21-.09-.35.05-.71.06-1.07l.07-2.87.03-2.07.09-2.59.06-2.05c.01-.49.23-.99,0-1.44l-.16,2.56-.11,2.48-.1,2.83-.11,3.42-.09,3.81c-.02.77-.02,1.48-.02,2.24v2.82s-.04,7.23-.04,7.23l.08,1.48.07,5.96.1,2.39.1,3.86.1,2.3.11,2.07.08,2.34.1.94.1,1.78.11,2.29.22,2.59.07,1.53ZM48.23,175.5c.41-.05.76-.25,1.15-.15s.73-.16,1.05-.17l1.03-.03c.73-.15,1.4-.14,2.14-.07-.41-.35-.94-.29-1.42-.24l-1.84.18-1.98.23-1.95.25-1.42.23c-.05,0-.16.15-.18.19-.01.03.09.13.13.14,1.04-.3,2.14-.43,3.29-.56ZM30.45,179.17l1.59-.37,2.07-.59,2.27-.57,4.58-1.01c-.17-.33-.48-.12-.74-.06l-2.08.43-2.05.46-2.4.62-1.69.5c-.55.16-1.14.23-1.55.59ZM23.62,206.42c.56.05.88-.38,1.28-.56.36-.16.62-.46,1.05-.55l.7-.43c.2-.12.32-.08.52-.23.36-.29.8-.53,1.23-.72l1.4-.61,1.09-.63,1.22-.59c.94-.29,1.43-.82,2.26-1.04.41-.11.66-.3,1.04-.46l1.13-.48c.31-.13.62-.15.99-.31l.58-.25,1.93-.69,1.19-.56c.05.03.16.16.2.13l.21-.22c1.04-.08,1.84-.82,2.81-.79.39-.23.86-.37,1.38-.36.16-.19.37-.08.54-.14l.98-.37.95-.19c.23-.05.39-.08.66-.14l1.52-.34.79-.26c.63-.21,1.09-.81,1.43-1.47l-.97.57-1.57.61-2.18.55-1.53.36-2.06.58-2.34.75-1.87.63c-.38.24-.92.19-1.31.38l-.92.45c-.15.08-.34,0-.42.27l-.23-.2c-.36.4-.9.45-1.36.65l-1.31.57-1.96.96c-.19.09-.53.22-.71.3l-1.02.48-.99.47-1.21.65-.63.26c-.23.1-.43.26-.69.41l-.63.37-.13-.09s-.1.13-.12.2c-.26.07-.58.04-.8.2-.32.24-.77.32-1.07.52l-.74.48c-.28.18-.51.28-.83.45l-.95.51c-.12.07-.37.04-.42.28.2-.02.25.15.28.23.22-.03.35-.2.5-.29.05.18.2.27.28.21.07-.05.15-.12.23-.24.29.13.52.05.63-.25Z"/>
      <g>
        <path class="cls-1" d="M102.23,89.7c-.45.58,1.56.22,1.68-.6.04-.28-.11-.56-.34-.75-.34-.27-.78-.24-1.23-.23-.13-.04-.26.07-.16.2l-1.72-.23.85-.11v-.29s-.1-.05-.2-.01c-.03-.2.05-.32.27-.51l-.75-.16c.23-.15.48-.25.69-.3l1.11-.27c.7-.02,1.25.56,1.64,1.07l-.28.1c.37.52.4,1.07.35,1.71-.07.93-.88,1.75-1.74,2.06-1.21.43-2.75-.83-2.16-1.03-.05.02.31.22.37.34.04.08.21-.04.18-.12-.15-.33-.5-.29-.77-.63.49.14.88.12,1.32,0l.9-.22Z"/>
        <path class="cls-1" d="M102.23,89.7c.22-.28.36-.48.32-.77-.03-.25-.24-.41-.37-.62.43.06.99.11,1.17.58.12.29-.19.56-.35.68-.21.15-.57.07-.78.13Z"/>
        <path class="cls-1" d="M98.58,90.53c.78,1.74,2.8,2.7,4.66,1.9.24-.1.43-.19.71-.05,1.28-.82,2.02-2.26,2.2-3.75.26,1.15-.26,2.16-.99,3.04-.69.82-1.73,1.23-2.81,1.49.03-.34.33-.23.52-.35-.89.12-1.77.18-2.66-.33-.21-.06-.2.31.03.19.58.32,1.14.37,1.77.55-.96.22-1.86-.11-2.62-.69-1.62-1.23-2.14-3.43-1.37-5.29.19-.47.35-.84.7-1.2l.73-.73c.34-.34,1.46-.81,2.1-.86,2.48-.21,4.74,1.44,4.55,3.99-.14-.41-.11-.95-.45-1.29-.66-.05-.71-1.01-1.69-1.54-.57-.3-1.09-.49-1.7-.54l.64-.12c-.82-.26-1.71-.04-2.52.38-.19.08-.24-.16-.03-.15.19-.04.14-.25-.07-.2-2.22,1.21-2.79,3.34-1.92,5.71.06.17.24.14.23-.15Z"/>
      </g>
      <g>
        <path class="cls-1" d="M130.52,38.47c-.22-.26-.11-.38-.03-.58.18-.43.36-.84.89-.9l-.18.53h.14s.4-.76.4-.76l.35-.25c.07-.05.23.09.31.19.06-.41.34-.56.68-.78.08-.05.18.18.2.37l.48-.76c.1-.15.42-.09.49-.05-.16.71-.36,1.29-1.05,1.66l-.09-.44-.43.7c-.32-.07-.55.03-.78.24-.06-.1-.16-.19-.21-.15-.09.08-.2.22-.24.32l-.07.19s-.12.03-.15-.05c-.02-.05-.01-.12.04-.28-.35.15-.62.43-.75.81Z"/>
        <path class="cls-1" d="M134.91,36.08c-.14-.08-.16-.21-.23-.32l-.42.74c-.2-.27.05-.5.12-.75.15-.5.39-.89.99-.93-.14.26-.27.46-.19.76l.81-1.34c.25.33.14.88-.03,1.14-.33.04-.64.18-.67.55.09.04.13.1.1.14-.04.06-.13.14-.21.19-.09-.2-.02-.39.04-.63-.23.04-.26.19-.31.44Z"/>
        <path class="cls-1" d="M128.69,40.08c-.51.34-.81.19-.88.79-.12-.21,0-.41.04-.59-.23-.25-.16-.48-.12-.78l.04-.31c.02-.13.29-.09.37-.14l.41-.25c.13-.08.46-.01.46.19-.07.37-.41.63-.61.99.09.02.2.02.3.09Z"/>
        <path class="cls-1" d="M136.13,36.68c.32-.45.08-.91.88-1.25.15.04.06.17.04.21-.04.07.04.21.16.21.02-.49.26-.83.72-1.03-.12-.09-.08-.34,0-.32.2.05.16.35.08.42l-.32.27-.08.71c-.03.28-.44.29-.67.42-.24.15-.39.45-.82.36Z"/>
        <path class="cls-1" d="M131.74,39s-.4.53-1.22.69l.62-1.32.25.47c.25-.3.33-.53.2-.91.29.17.43.23.78.25-.2.33-.33.55-.36.91l-.26-.08Z"/>
        <path class="cls-1" d="M136.61,34.61c-.06.34-.15.57-.41.74,0-.4.2-.65.35-.98.12-.27.15-.55.46-.7-.02.19-.05.34.13.49.16-.35.3-.59.53-.89.33.09-.04,1.05-.38,1.32-.16.13-.34.15-.54.4-.01-.23.03-.3-.15-.38Z"/>
        <path class="cls-1" d="M117.49,70.95c-.26.23-.45.55-.82.59l2.32-2.26c.49-.48-.12-.85.15-1.22-.09-.14-.25-.31-.18-.44s.24-.27.36-.16c-.04.08-.13.15-.16.17-.06.04-.02.1.02.1h.28c.12-.11.05-.35.1-.47l.32-.18c.08-.04.07-.25.09-.41.29.04.36.33.28.66.23,0,.34-.07.54-.14.04.16.1.23.31.26-.16.19-.3.29-.55.35.08.17.11.27.07.37l-.33-.1c-.07-.02-.07.25-.13.3l-1.33,1.36-1.34,1.21Z"/>
        <g>
          <path class="cls-1" d="M83.37,54.22l.21-1.51.22-1.76.2-1.47.22-1.75.2-1.58.21-1.88.24-1.95.11-1.27c.05-.54.32-1.34.95-1.41l1.14-.11,1.87-.12,2.66-.28,2.41-.13,2.51-.36c.61-.09,1.22-.08,1.8-.29.58.13,1.16.03,1.71-.16.38-.13.71-.07,1.08-.1.34-.03.65-.29,1.04-.2.48.1.93-.17,1.38-.22l.68-.08c.48-.05.84.49.77.96l-.26,1.75-.44,2.27-.39,2.08-.42,2.17-.75,4.13-.66,3.62c-.07.38-.27.43-.6.47l-1.94.25-1.73.15-.72.03-1.97.17c-.34.03-.62.05-.97.06l-1.68.04-1.13.06-2.75.08-.77-.16c-.8.2-1.5.09-2.3.05s-1.57.14-2.27-.26c-.12-.42.08-.88.14-1.31ZM100.34,42.36l-2.2.31-1.21.12-1.16.11-1.35.23-1.12.02c-.64.13-1.23.12-1.87.13h-.93s-1.46.11-1.46.11c-.56.04-1.03.07-1.57.05-.72-.03-1.48.19-2.17-.22l.02-1.71c0-.33.15-.62.03-.98-.28.59-.23,1.21-.31,1.88-.06.47-.07.99.45,1.3.31.18.88,0,1.26.02.65.04,1.21.07,1.87-.07l1.02-.02c.32,0,.56,0,.85,0l1.22-.03,1.46-.08,2.49-.3,1.39-.14,1.7-.19c.95-.1,1.82-.25,2.76-.49.6-.15,1.35-.03,1.9-.37l.58-.36c.38-.23.38-.83.46-1.21l.33-1.55c.07-.33.12-.67-.21-.9-.21-.14-.47-.14-.8-.09l-1.01.13c-.87.11-1.68.24-2.54.44l-.83.06c-.34.02-.73.08-1.1.08-.45,0-.94.19-1.39.24l-1.25.15-2.27.2-1.27.08-2.9.28-1.15.11c-1,.09-2.3-.17-2.61.62.64-.24,1.27-.36,1.99-.28l1.03-.1,1.26-.1,1.07-.08,1.76-.22c.57-.07,1.17.02,1.75-.16.28-.09.55-.01.81-.04l1.09-.1,1.64-.22c.39-.05.75-.15,1.12-.15.75-.01,1.39-.14,2.15-.26l1.25-.19c.54-.08,1.1,0,1.61-.28l.51.34c.14.68-.2,1.31-.25,1.95-.06.89-.65,1.53-1.56,1.52-.82-.01-1.58.28-2.37.4ZM100.73,53.64c.12.18.11.46-.04.61-.1-.04-.13-.05-.16-.05-.04,0-.09.2-.05.23.22.1.44.18.6.4l.31-1.34c.04-.16.07-.66-.17-.63l-.99.13c-.52.07-.96.22-1.5.15-.06,0-.19.11-.2.16-.03.28.74-.04,1.46.09l-.44.24c.42.11.74.11,1.2.01ZM96.06,53.61c.48-.06.12.91.08,1.63.35-.31.24-.73.34-1.09.07-.25.1-.47-.05-.65-.1-.13-.31-.18-.53-.15l-1.66.2c-.2.02-.39-.12-.59.14.25.16.45.15.71.12l1.7-.2ZM91.03,55.05c.04.07.24,0,.28-.05.07-.1.05-.22,0-.32.12.16.11.41.12.65.25-.3.15-.64.22-.92.08-.34.11-.51-.11-.71s-.38-.08-.66-.07l-1.98.12c.44.31.91.15,1.39.14h1.16c.13.02.13.42.02.5l-.09-.31c-.03-.09-.58.41-.34.97Z"/>
          <path class="cls-1" d="M124.15,38.61c-.01-.16.03-.26.07-.43-.21.05-.27-.02-.42-.13.03.19.06.38-.18.46-.08-.54-.05-1.09-.45-1.5-.15-.15-.34-.22-.21-.51-.15.06-.22.05-.29.03-.12-.04-.16-.16-.21-.27-.17-.24-.77-.47-1.16-.47.04-.2.17-.24.27-.24s.23.05.33.22c.26-.39.34-.91.19-1.37-.1.27-.16.52-.49.54l.21-1.08.4-1.6.17-.89c.2-.15.51-.37.75-.56l1.99-1.64c.42-.34.87-.92,1.3-1.1l-.26.67c-.02.06-.09.11-.11.1s-.07-.07-.13-.16c-.21.98-1.02.94-.94,2.15l-.2.79c-.08.31-.31.46-.57.53.19.1.34.06.53.07-.27.46-.5.29-.61.86-.06.31.26.27.41.46.88,1.1,1.05,2.47.99,3.83l-.19,1.38c-.03.21.05.41-.1.62-.2.26-.13.63-.23.91l-.66,2c-.33-.54-.03-.99.1-1.49l.04-1.64c0-.11.06-.25,0-.37-.03-.08-.06-.19-.34-.18Z"/>
          <path class="cls-1" d="M108.08,34.84c.6-.48.98-.35,2.11-.91.12-.06.21-.16.33-.13.09.02.17.09.23.21-.04-.4.37-.29.48-.4.18-.19.43-.24.68-.31l.71-.21c.06-.02.15-.27.2-.23.06.04.14.17.2.3.32-.41.85-.49,1.36-.6.07-.02.16-.1.21-.09.07,0,.13.04.2.13.49-.45,1-.28,1.42-.61.04-.03.11.02.19.11.24-.55.6-.18.84-.55.54.29.8-.29,1.29-.21.07-.05.16-.23.29-.25.1-.01.26.1.38.15.51-.18,1-.68,1.52-.68.21.04.31-.12.48-.3.24.14.47.08.65-.08.06.05.15.16.22.15.12-.03.26-.13.27-.37.18.01.29.21.3.38.02.2-.21.28-.29.45l-.11.24c-.03.05-.15-.02-.18-.14-.28.29-.58.45-.94.64l-.74.37c-.68.13-1.22.38-1.83.7l-1.25.3c-.4.1-.7.34-1.11.43l-.95.21-1.61.5-.84.2c-.63.15-1.15.47-1.79.48l-1.29.34-.86.17c-.49.1-.92.18-1.43.26l-1.74.28c.26-.46.86-.26,1.52-.73l.89-.21Z"/>
          <path class="cls-1" d="M81.54,45.56l1.95.05c.07.44.03,1.14-.27,1.51-.63.23-2.12-.02-2.18-.08-.28-.27.12-.84-.05-1.51-.32.23-.12.6-.17.83-.09.41-.07.61.12,1.05-.47-.16-.35-.65-.26-1.08.12-.59-.05-1.34.31-1.87.19-.28.83-.18,1.14-.1l-.08.6c-.02.12.32.11.43.02.09-.07.09-.33.1-.5.32-.16.85-.12,1.21.09.11.73.05,1.44-.11,2.13-.19-.49.22-.94-.18-1.31l-1.44-.06c-.23,0-.56-.22-.81-.04-.09.06.12.26.29.27Z"/>
          <path class="cls-1" d="M120.48,47.99c.64.12.11-.56.6-.92.27-.2.13-.28.14-.58l.23.06c.23.06.41-.85.68-1.1.2-.19.24-.35.28-.57.1-.11.41-.23.48-.46l.24-.18s0-.18-.01-.28c0-.3.32-.43.43-.64l.52-1c.12.08.19.18.15.25l-.12.25-.37.75c-.32.64-.83,1.87-1.15,2.12l-.42.79-1.01,1.39-1.36,1.45c.07-.54.51-.87.7-1.34Z"/>
          <path class="cls-1" d="M107.61,42.12l-.1-.43c-.07.27-.11.57-.45.68l-.18-.09s-.15.17-.28.14c-.13-.08-.15-.54,0-.65.23-.18.56-.18.84-.27s.51-.34.9-.27l.75-.12c-.07.29.2.29.16.05-.14-.23.24-.31.18-.04-.22.11-.07.33.07.17.08-.48.35-.58.74-.6.19-.01.44-.21.63-.05-.08.19.14.26.16.03-.04-.17.14-.31.19-.11l.16.18s-.03.24-.09.35-.25-.02-.24-.14c-.07.1-.08.16-.08.23s-.07.12-.13.07c-.04-.03-.05-.16-.22-.22-.06.23-.18.45-.47.44,0-.19.05-.37-.07-.49.07.31-.23.31-.16.02-.28-.02-.24.46-.63.67-.13.07-.21.13-.36-.06-.16.35-.42.41-.76.21l-.2.4c0-.36.08-.6-.07-.86l-.32.74Z"/>
          <path class="cls-1" d="M106.02,49.62c-.02-.24.02-.66.2-.72l.73-.22c.05-.02.21-.03.25,0,.16.07-.26.59.15.48.04-.17.03-.44.2-.54.15-.1.38-.21.6-.06l-.42.34c.11.17.28.13.36.06.07-.07.17-.25.19-.44l1.64-.47c.09.23,0,.42-.05.6-.04.13-.28.24-.45.21l.08-.32c.02-.07-.12-.22-.27-.11.13.09.17.54.03.58-.3.07-.28-.33-.27-.5-.06.25-.31.62-.56.64-.18-.18-.24-.01-.39.02l-2.02.48Z"/>
          <path class="cls-1" d="M107.92,44.2c-.06.11-.09.24-.25.31-.01-.27.02-.5.15-.72.05-.09.32.07.32.2.06-.23.14-.42.32-.41l.47.03c.05-.07.1-.22.15-.25.06-.03.24,0,.24.06,0,.09-.04.22.05.36.08-.13.07-.25.07-.34,0-.12.16-.23.27-.14.03.02-.03.14-.06.16-.04.03-.02.12.03.12.12.01.16-.07.19-.17l.06-.2c.02-.06.14-.09.16-.05l.1.32c.08-.21.13-.4.36-.55,0,.24-.02.4.06.55.08-.14.06-.26.07-.34s.08-.25.24-.11c-.1.13-.15.27-.11.34.03.05.17.04.29.02-.1.39-.53.34-.78.39l-.85.19c-.06.01-.13.15-.21.12-.07-.02-.14-.06-.22-.2-.06.18-.08.35-.29.39-.18.03-.34.15-.53-.04-.04.09-.1.13-.13.13-.04,0-.13-.04-.19-.16Z"/>
          <path class="cls-1" d="M108.08,53.16s-.15.29-.17.25-.1-.09-.19-.04c-.09-.1-.2-.08-.19.16-.2-.1-.17-.65.09-.72l2.23-.58c-.02.33-.11.54-.17.73-.08.25-.33.07-.43.12-.36.16-.82.2-1.17.08Z"/>
          <path class="cls-1" d="M107.59,46.89c-.04-.2.03-.54.17-.77l.64-.11c.18-.03.37.07.56-.21.14.27-.01.37-.05.58.26-.04.21-.34.26-.47.23-.17.52-.2.85-.27.1.24-.03.75-.3.8l-1.18.22c-.1-.11-.23-.18-.37-.02-.07-.08-.16-.16-.2-.11l-.36.35Z"/>
          <path class="cls-1" d="M110.39,52.57c-.04.08-.05.32-.19.36-.23-.16-.18-.45.02-.68.13.25.26-.04.24-.12.13-.02.17.09.21.12.09.07.3-.23.49-.25.1,0,.16.16.19.31.06-.2.12-.38.29-.46.19-.09.4-.08.62.05l.37-.56c.05-.08.15-.1.18-.08s.08.1.08.26c-.37.16-.55.45-.56.9-.14-.11-.11-.22-.15-.35-.22.4-.5.45-.87.55l-.83.21c.07-.11.07-.29-.09-.27Z"/>
          <path class="cls-1" d="M81.4,43.36c-.08.19-.28.22-.43.23-.32.01-.3-.25-.28-.54-.15.17-.08.39-.08.57-.02.04-.06.06-.08.06l-.08-.63c-.08.37-.49.5-.8.38l.03-.69,1.47.1c.22.02.42.14.58-.12v.74c.01.08-.09.19-.14.19s-.12-.1-.2-.28Z"/>
          <path class="cls-1" d="M106,46.84c-.19.17.1.41-.05.47-.05.02-.16.05-.21.09-.04.03-.1-.21-.1-.29-.22.02-.29.19-.46.33l.14-.81,1.57-.34.09.41c.09-.21.13-.41.37-.55.11.32,0,.66-.15.85-.04-.1-.09-.17-.12-.18-.04,0-.15.3-.2.25l-.11-.1-.22.09c-.08.03-.18-.12-.21-.15-.18.28-.26.41-.26.21v-.26s-.06-.05-.09-.02Z"/>
          <path class="cls-1" d="M108.88,51.13c-.06-.07-.11-.16-.15-.17-.06-.02-.19.09-.13.28-.17.02-.23-.13-.23-.32,0-.18,0-.23.25-.27.11-.01.24-.17.34.1.04-.3.21-.27.44-.39.13-.07.18.2.17.39.09-.27.13-.53.49-.62-.03.18-.05.32.08.43.01-.27.02-.42.2-.55.03.15-.03.22-.09.32.23.03.29-.11.38-.32.12.29.07.6-.13.89-.14-.1-.08-.19-.09-.3-.55.49-1.01.27-1.52.53Z"/>
          <path class="cls-1" d="M105.94,51.7c-.05-.14.07-.71.2-.62.05.03.09.12.13.19.05-.1.16-.29.18-.27l.15.13c.13-.24.26-.35.29-.26l.11.32c.06-.17.06-.33.23-.43.06.17.1.25.21.33.03-.34.22-.47.6-.43.11.21.11.52-.19.74-.11.07-.44.18-.65-.09-.01.07-.11.27-.2.26-.27-.11-.48-.06-.62.15l-.06-.26c-.02-.07-.07-.04-.1-.01-.07.08-.08.17-.1.28-.03.13-.15.06-.17,0Z"/>
          <path class="cls-1" d="M112.29,38.31c-.1.17-.23.26-.45.36-.06-.45.02-.88.16-.93.07-.02.25-.04.29,0,.07.07.06.26.1.41.09-.22.1-.42.31-.64.12.09.15.22.21.44l.21-.64c.12.11.14.2.16.27.03.09.21.1.21-.05,0-.06.01-.29.05-.29l.23-.02c.06.29,0,.57-.13.84l-.11-.33c-.06.17-.06.32-.22.43-.08-.16-.11-.25-.22-.34-.02.18-.04.29-.12.39-.07.08-.27,0-.4-.02-.06-.01-.13.4-.29.12Z"/>
          <path class="cls-1" d="M113.94,37.83c-.02-.2-.03-.5.05-.74.03-.11.23-.13.27.02-.11.16-.18.33-.09.53l.43-.86.22.45c.09-.27.09-.53.42-.67.12.02.37-.22.56.03l.1-.25c.08-.21.25.07-.26.89-.1-.19-.11-.31-.23-.44-.06.32-.09.57-.3.76-.09-.19.06-.28.08-.37l-.07-.07-.27.52c-.41-.19-.44.22-.89.2Z"/>
          <path class="cls-1" d="M82.65,51.72c-.13-.72-1.2-.24-2.16-.62l.1-1.39h-.15s-.06.7-.06.7c-.03.36-.11.59.05,1-.46-.12-.32-.48-.27-.79.09-.63,0-1.4.36-1.95.28-.43,1.52.12,1.51.1.06.08.03.25-.06.37-.05.22.27.21.21-.02,0-.24-.01-.39-.11-.55.58-.05,1-.08,1.31.3.12.14-.02.38-.04.53-.07.9.1,1.86-.69,2.31ZM82.76,50.83l.08-.5c.14.34.05.66-.06,1.07.4-.2.3-.58.34-.94.03-.29.18-.54-.04-.77-.5-.51-1.02-.13-1.96-.4-.21-.06-.47.13-.4.3.67.18,1.44.25,2.13.24.03.15.03.24.13.37-.39.13-.76.14-1.26.17l.56.26c.08-.25.24-.15.21.03,0,.09-.03.12-.01.15s.13.1.27.01Z"/>
          <path class="cls-1" d="M76.56,53.12c.84.41,1.81.05,2.21.39.2.36.01.87-.07,1.29h-1.93c-.09,0-.21-.11-.26-.08-.05.04-.1.16-.13.31-.29-.07-.39-.4-.35-.72l.19-1.47c.04-.28.09-.47.27-.63s.43,0,.65-.02c.48-.02.8.08.9.55.1-.23-.03-.34-.06-.54l1.14.24c.23.48.12,1.01,0,1.55.09.2-.16.21-.11,0,.34-1.01-1.12-1.09-2.46-.89Z"/>
          <path class="cls-1" d="M79.64,47.26c-.07.02-.18.09-.23.06s-.06-.14.03-.28c-.69-.15-1.41-.27-2.16-.24l.12-1.57c-.3.08-.21.32-.24.51-.07.41-.21.78.07,1.15.11.12.04.29-.2.13-.05-.2-.16-.58-.13-.82l.19-1.76c.01-.09.1-.32.17-.38s1.21-.26,1.64.34c-.04-.5.91-.31,1.16-.07.3.29.08.78.05,1.11l-.11,1.27c-.02.23-.03.46-.35.55ZM79.89,45.29c-.23-.31-1.75-.5-2.5-.26.82.35,1.58.3,2.38.35.06.56,0,1.1-.18,1.67.37-.12.46-1.55.3-1.76Z"/>
          <path class="cls-1" d="M82.25,55.13c-.77-.02-1.49.06-2.28-.15l.12-1.25s-.04-.06-.07-.07l-.27,1.25c.11.13.27.23.2.46-.3-.15-.43-.54-.31-.89.2-.56.03-1.27.34-1.79.33-.39,1.28-.2,1.58.11.08-.1.07-.15.09-.21.03-.07.1-.03.2,0l1.03.24-.19,1.87c-.04.44-.18.79-.65.85-.02-.19.08-.25.19-.42Z"/>
        </g>
      </g>
      <g>
        <path class="cls-1" d="M32.27,123.6l-.69-2.99-.11-1.26-.12-1.02-.09-1.27-.11-1.87-.06-1.2.23-2.98c.02-.32.03-.53.09-.85l.33-1.73.37-1.8.31-1.16.58-1.71.95-2.53c.14-.36.57-.72.58-1.1.01-.33.16-.32.29-.56l.37-.66.29-.56c.18-.34.4-.74.55-1.1.14.05.15.14.16.18.02.07.11.08.14.05.23-.18-.06-.81.31-.97h.31c.08.02.39-.59.67-.92.18-.22.04-.54.05-.8.18-.07.49-.11.52-.44.03.09.14.21.24.2l.47-.59c.14-.18.04-.43-.06-.62.22-.06.34.05.48.18l.5-.7.19-.07s.03-.11-.03-.14c-.04-.02-.11,0-.16.02-.08-.13.02-.27.06-.24.08.05.18.07.24.05.06-.02.01-.19.07-.22l.29-.16c.09-.05.15-.2.06-.37.14-.08.33-.05.5.07.01-.15-.03-.22-.08-.36.25-.15.59-.3.71-.56.16-.34.42-.48.75-.67.19-.11.3-.4.62-.41-.11-.05-.17-.15-.13-.18l.82-.64c.37.05.52-.4.72-.52.34-.2.66-.39.9-.67.36,0,.42-.13.54-.47l.12.21s.14,0,.14-.05c0-.04-.05-.12-.09-.21l.5-.1c.04-.07.02-.28.1-.34.07-.06.21-.02.32-.08l1.04-.56c.45-.24.92-.5,1.37-.75l.59-.32c.64-.35,1.27-.62,1.94-.86l2.77-1.01.46-.14c.58-.18,1.2-.31,1.79-.48l.78-.22c.28-.08.46-.1.72-.15l2.14-.39,1.24-.15.74-.06c1.51-.12,3.54-.18,5-.08l2.12.15,2.73.37c.52.07.95.19,1.46.31l.93.22c2.41.56,4.73,1.25,6.96,2.31l1.35.64,2.78,1.49.64.4,2.02,1.33,1.22.86,2.33,1.91v.29c0,.06.27-.03.33.02l1.3,1.2c.21.19.48.31.5.67-.01.14.12.2.2,0,.17.22.27.45.59.55l-.02.32c.64.11.59.69,1.11.98,0,.44.45.6.63.88l.44.66.53.58,1.94,2.74.67,1.13c2.48,4.18,4.21,8.7,5.08,13.5l.36,2.35.1,1.13.1,1.67.02,4.36-.17,1.08c-.04,1.29-.26,2.46-.52,3.75-.72,3.5-1.95,6.83-3.65,9.96l-1.55,2.52-1.48,1.98c-3.76,4.7-8.81,8.13-14.54,9.99l-2.87.78-1.03.19-1.03.2-2.52.34-1.85.04c-.82.02-1.59.08-2.41.04l-1.54-.07-3.22-.41-1.74-.32-1.79-.4-.98-.26-.95-.3-1.05-.3c-5.09-1.69-9.86-4.25-14.08-7.57l-1.33-1.09-2.23-2.03-1.3-1.4-2.46-2.85-1.01-1.38-.89-1.2-1.5-2.45-.38-.68-.63-1.23-.76-1.52-1.53-3.97-.71-2.39ZM33.35,104.56c-.26.37-.31.5-.25.89.03.23-.26.59-.29.83-.04.33,0,.58-.39.8.11.17.2.44,0,.55-.16.09-.13.5.03.68l.61-2.08.23-.9,1.51-3.8c.16-.4.51-.75.58-1.17.03-.15.33-.36.32-.5-.03-.31.3-.39.35-.53.22-.67.71-1.19,1.07-1.74,1.88-2.88,4.14-5.41,6.77-7.66l3.22-2.42c3.61-2.38,7.54-4.05,11.79-4.95-.14-.37-.4-.07-.52-.04l-1.61.39c-6.07,1.46-13.34,5.73-17.2,10.58l-1.62,2.03-1.37,2c-.54.78-1.47,2.48-1.75,3.34-.05.16-.3.25-.3.55l-.39.8c-.09.18-.02.39-.18.57-.37.42-.47,1.56-.62,1.78ZM78.07,87.17l-.77-.23c-.44-.13-.77-.27-1.23-.36l-1.76-.33-.82-.13-1.34-.19-.93-.1-1.7-.11-1-.08c-.7-.05-1.36.15-2.05.04l-.77.04c.1.4.44.1.61.12.4.05.7,0,1.05.01h2.78s1.93.24,1.93.24c.68.08,1.29.18,1.95.32l2.59.56,1.86.49c.06-.09.03-.27-.04-.28s-.26.02-.4-.02ZM83.84,145.51l.17-.07s.12.06.21.14v-.5c-.02-.14.24,0,.28.03.03.03.1-.1.12-.16.41-.14.48-.57.73-.62.06-.01.19,0,.11.13-.2-.05-.2.19-.07.17.26-.21.44-.33.57-.67.1.11.35.19.49.08.1-.08.16-.23.25-.25.1-.02.28.09.34.12.08-.15-.06-.28-.18-.38.37-.03.59-.23.66-.57-.03-.14.18-.14.15,0-.01.08,0,.19.16.21-.14-.35.23-.67.6-.65.15,0,.19-.05.19-.13,0-.04.02-.24.07-.22l.21.06s.07-.11.04-.19c-.02-.05-.05-.09-.11-.11-.08-.02-.13-.09-.09-.16.03-.05.58.18.6-.1,0-.07-.13-.17-.23-.24.07-.16.2-.08.24-.11.08-.23.04-.11.18.18.03-.07,0-.28.16-.29.05.22.23.19.2,0-.06-.09,0-.21.03-.21.05,0,.24.3.27.13.02-.11-.18-.33,0-.47.04-.03.08-.03.2-.03l-.14-.22.14-.25c.07-.13.16-.14.19-.05.01.03.01.11.16.19l.28-.68c0-.14.2-.03.08.08.14.06.17.14.17.18,0,.03-.05.09-.11.14-.15.11-.01.3.12.15l.36-.28c-.14-.05-.28-.13-.3-.2-.02-.05.14-.14.2-.14.19,0,.31-.92.66-.63.05.04.07.18-.01.28-.09.14.09.2.16.06l.16-.34c-.42-.32.23-.41.46-1.19l.28-.33c.29-.21.55-.43.4-.89-.07-.11.14-.19.17-.02l.05.22c.07.35.12-.23.58-.54l-.26-.54c.66.03.62-.64.82-.57.04.01.07.08,0,.14.01.08.08.11.16.08.12-.04.16-.11.21-.16.03-.04,0-.15-.04-.14l-.14.04c-.05.01-.41-.07-.29-.16l.15-.11c.47-.36,0-.9.37-.88.06.01.14-.17.2-.19.04-.01.13.16.17.1-.03-.22-.11-.39-.06-.47.06-.11.26-.11.36-.16-.72-.13.24-.57.4-2.01.04-.34.21-.63.03-1.01-.03-.06,0-.21.04-.26.08-.13.57.03.37-.15l-.14-.13.24-.95.06-.93c0-.09.27-.23.09-.38-.26-.21.2-.16.18-.62,0-.1-.07-.23-.2-.33.21-.15.16-.29.19-.48l.12-.82c-.09-.28,0-.33.01-.53l.07-2.78c0-.15-.18-.23-.26-.21-.06.01-.18.06-.24.09-.07-.09-.03-.19.09-.23.04-.03-.02-.11,0-.15.03-.05.18-.05.2.09-.01.18.26.1.13-.03.07-.33.07-.65.02-.96l-.04-.24c-.01-.07-.02-.19-.15-.07.08.15-.03.23-.08.2-.07-.05-.17-.02-.2-.15.19-.04.39-.2.37-.39l-.24-2.34c-.05-.06-.27-.12-.21-.25.04-.08.07-.13.22-.3h-.41c.52-.35-.08-.68.05-1.59-.15,0-.23.07-.32.05v-.14c.09-.04.21,0,.33-.12-.39-.15-.56-.45-.38-.8.06-.13.07-.28.01-.37-.03-.05-.22-.08-.29-.12-.09-.18-.17-.49-.12-.74-.09-.01-.15,0-.17-.06s-.02-.25.03-.27c.06-.03.11,0,.13,0,.03,0,.08-.09.05-.18-.07-.18-.26-.17-.4-.25.16-.06.11-.16.02-.21-.02-.07-.05-.23-.1-.25-.12-.06-.19.08-.16.15.02.04.04.14-.03.26-.06-.04-.17-.25-.17-.36s.16-.23.31-.28c-.04-.27-.14-.44-.26-.72-.11.2-.02.43.03.62-.2.11-.29-.04-.24-.11.11-.19-.02-.32-.11-.44.05-.12.26-.26.14-.49l-.25.34c-.05-.23-.08-.48-.19-.59-.19.04-.24.02-.31-.15-.04-.1.08-.15.19-.25.03-.08,0-.26.18-.32.06-.1-.05-.23-.17-.14-.38.27-.21-.33-.54-.43.15-.44-.12-.77-.44-1.05l-.3-.8-.43-.61c-.06-.26-.1-.44-.26-.71l-.53-.89-1.2-1.87-.74-1.11c-.22-.33-.49-.65-.81-.84l-.27-.68c-.42.1-.57-.69-.9-.88s-.46-.46-.68-.81c-.14-.23-.49-.53-.75-.76l-2.24-2.04c-.19-.18-.51-.29-.61-.55-.09.01-.24.02-.27-.04l-.11-.2-1.25-.9c-.25-.3-.55-.36-.82-.56-.66-.48-1.29-.84-1.99-1.23l-1.01-.57c-.1-.06-.27.03-.35-.11-.05-.09-.05-.18.03-.4-.48.24-.66-.03-1-.26-.19-.13-.69-.02-.66-.49.03-.16-.19-.18-.12.03.05.15-.12.11-.1.08.11-.23-.44-.14-.43-.43,0-.25.12-.29.31-.38l.39-.19c.11-.05.26.13.34.23.23-.16.4-.04.58.03l1.55.55,1.41.57,2.7,1.29c0-.3-.33-.28-.49-.37l-1.51-.82c-3.09-1.49-6.34-2.52-9.7-3.28l-.79-.18-3.55-.5-1.55-.14-1.66-.11h-.84c-1.72,0-3.33.18-4.98.67l-1.36.41-1.31.54-1.13.5c.02-.11,0-.18-.03-.21-.03-.02-.12.02-.17.04l-.95.44c-.18.09-.46.35-.63.43l-.08.22s-.11.01-.13-.04c-.01-.03.01-.07,0-.2l-1.34.81c-.19.12-.38.34-.62.37,0,.09,0,.26-.06.26h-.24c-.75.31-1.42.86-2.05,1.38l-1.61,1.31-.56.5c-1.22,1.21-2.49,2.37-3.44,3.83-.2.31-.25.64-.65.85-.17.09-.13.58-.26.76-1.66,2.45-2.87,5.08-3.71,7.92-.02.06-.1.1-.07.2.02.04.1.08.14.05.03-.02.06-.1.11-.21.19.33-.07.65-.1.99l-.13,2.07c-.02.37-.12.72-.04,1.1.17.83.06,1.61.06,2.43v3.89s.29,2.08.29,2.08l.19.27.2.73.54,1.71.24.31c.04.05-.06.15-.13.26.16.22.21.39.29.58l1,2.46.21.63c.1.3.25.48.4.76l.81,1.55.42.59c.14.68.93,1.08,1.09,1.63.09.31.42.45.52.62l.47.81.47.7c.13.2.09.67.39.8s1.06.97,1.36,1.46l.24-.45c0,.52.25.83.61,1.08-.34.07.15.35.13.35l.2-.02c0,.4.48.5.68,1.2.03-.08.14-.19.18-.15l.18.16c.18.16.24.37.33.48.12.15.44.26.52.43.11.24.34.24.47.37l.75.7c.42.39.83.83,1.25.86l.08.24.28.09c.12.04.11.3.28.38.18-.37.14-.04.84.36.11.06.32-.03.36.06.05.1.07.27.06.47.03.05.11-.13.16-.11.06.01.15.17.19.26.19.02.5-.08.64.07l.38.39c.16.04.28-.02.35.04.11.1.14.22.21.33.08-.22.01-.39.11-.54.04.18,0,.53.12.57l.4.12c-.01.08,0,.18.03.22.06.07.12,0,.11-.02,0-.05-.03-.17.05-.24.15.31.46.43.53.21l.2.53.08-.44c.11.21.27.31.53.38,0,.13-.03.23.07.35.09-.06.29-.13.32-.07l.16.31c.27.04.32-.23.02-.27.12-.13.3-.07.41.09.05.07.06.18,0,.37.25,0,.42-.03.61.05-.17.17-.03.33.09.18,0-.2.18-.25.28-.22.07.02.17.1.12.21-.09-.14-.29-.08-.27-.03.21.59,1.13.22,1.23.43l.11.23c.02-.16,0-.25.12-.34-.07.69.57.28.81.86.03-.19.09-.31.2-.33.1-.02.2,0,.26.05-.26.13-.06.2.02.3s.37-.07.18-.14c-.15-.12.11-.2.17-.1.1.19.03.43.2.5.03.01.07-.05.11-.09.09-.09-.09-.04-.18-.26.25-.11.44.2.64.37l.47.4c.03-.13.07-.25.1-.25h.23c.13-.09.2-.14.3-.09s.12.15.05.3l.44.1c-.05-.2-.18-.18-.24-.22-.07-.05,0-.15.06-.14l.38.11c.09.03.1.19.15.29.03-.2.07-.3.2-.33.07-.02.24.03.21.14l-.05.23.21.12c.09.17.26.2.39.24.21.06.29-.25.39-.32.27-.2.67,0,.98.07-.02.02-.16.07-.18.12-.02.03.07.09.1.11s.07.04.1-.01l.1-.2c.49.06,1.11.03,1.6.22l.46.35c.01-.2,0-.3.1-.47.35.22.68.16.98.08.04.07.08.18.08.23,0,.08.1.06.1,0,0-.08-.02-.14.04-.27l.26.33c.15-.11.32-.11.41-.06.07.04.19.23.26.25l1.32-.31c-.05.18-.22.2-.31.27.24.17.54.12.69,0-.05-.13,0-.27.13-.3.06-.01.12.03.19.09.21.03.31.12.4.28.06-.58.39,0,.63-.2.08-.07.2-.49.2-.48-.02-.04-.18-.04-.16-.23.43.07.55.69,1.05.7-.05-.15-.18-.2-.18-.31.19.06.33.11.37.05.07-.1.09-.19.15-.38.13.16.12.31.09.62l.45-.53c.53.07,1.01-.78,1.09-.15.21.12.34-.2.48-.25l1.01-.4c.2-.08.52-.49.77-.18.15.19.54-.09.67-.35l.33.2c.08-.37.23-.55.45-.71.02.14.06.23.11.28.01.01.69-.09.71-.18l.11-.42c.06.19.1.39.29.39.01-.17.08-.36.19-.38.08-.01.2.04.31.12ZM101.37,132.99l.94-3.14.1.53c.48-1.62.78-3.28.89-5l.06-.92.11-1.3v-2.67c.01-.36-.14-.67-.07-1.07l-.12-.8-.07-1.25-.18-1.17-.32-1.79c-1.18-5.53-3.51-10.74-6.98-15.18l-2.57-2.98-1.28-1.22-.92-.82c-2.12-1.89-4.46-3.45-7.01-4.76-.4-.2-.81-.32-1.2-.53l-.6-.32c-.21-.11-.43-.26-.67-.11-.11-.3-.32-.34-.52-.4l-1.27-.43-1.08-.38c-.06.47.37.3.49.35l.75.32c2.03.88,4.26,1.64,6.27,3.04l2.52,1.76,2.36,2,1.09,1,.39.43c.32.35.51.68.93.96l.42.6,1.15,1.35,1.3,1.73c1.18,1.76,2.28,3.51,3.18,5.44.13.27.23.34.24.66.01.76.43,1.46.68,2.17l.39,1.09c.71,2.31,1.33,4.63,1.56,7.05l.27,2.85v3.71s-.08,1.56-.08,1.56l-.61,4.14-.29,1.62c-.11.61-.43,1.18-.28,1.84ZM98.6,124.92l.1-1-.02-3.42c0-.39-.03-.82-.19-1.2l.1,4.32-.12,1.24c-.05.49-.26.95-.02,1.47.13-.42.2-.88.14-1.41ZM97.26,135.08c-.06.36.06.53.32.5-.28-.28-.18-.67-.63-1.04.02.32-.12.52-.41.55-.05.07-.09.18-.16.16-.11-.03-.21.05-.31-.07.21-.2.31-.34.41-.53l.11.32.31-.48c.09-.14.41-.03.54.12.1.11.09.25.05.53.6-.34-.28-.72.36-.91-.11-.28-.06-.46-.02-.7.01-.1-.28-.1-.32-.06-.09-.34-.18-.57.04-.81.04.37.07.66.46.73-.32-.38-.18-.79,0-1.19.14-.82-.22-1.06-.2-1.19s.21-.24.29-.32c-.16-.45-.02-1.16.17-1.64-.19-.31-.19-.71.18-.98-.2-.62-.12-1.2-.18-1.86l-.1.93c-.02.19-.29.39-.49.39-.39.17-.48.65-.34,1.03l-.5,2.24-.54,2.27-.82,2.51-.8,2.23c-.03.09-.05.34.02.43.04.05.14-.04.23.17l.19-.53c.04.1.11.17.18.15.1-.03.21-.08.2-.27,0-.14.05-.3-.09-.41-.01.14,0,.37-.08.41-.09.05-.29.07-.41-.1.28-.2.3-.47.46-.66.14.02.16-.14.05-.15-.05,0-.14.03-.25-.07.23-.04.42-.15.45-.47.09.09.09.16.11.32.13-.09.25-.19.28-.37.01-.09-.14-.21-.03-.41.21.15.13.36.16.58.18-.23.09-.54-.11-.71.12-.15.22-.14.33-.13.12.02-.05.14-.01.39.26-.33.28-.7.4-.57l.17.18c-.02-.29.09-.39.34-.51ZM75.12,153.44c-.17-.01-.25-.35-.29-.47-.09.22-.05.41-.3.58v-.48c-.06.1-.1.31-.21.37-.07.04-.22-.06-.35-.02l-.62.21c.3.53.64-.17,1.08.23.06-.09.13-.13.18-.13.03,0,.12.07.15.1l.78-.13c.19-.03.49.2.73-.07.22-.24.43.04.56,0,.19-.06.39-.14.56-.1.24-.22.69-.29,1.03-.16.29-.26.63-.33,1.01-.21l.9-.24c.3-.18.4-.17.71-.2.5-.04,1.04-.31,1.52-.49l1.61-.59.74-.28,2.18-1.06c2.1-1.15,4.02-2.49,5.78-4.11,2.42-2.23,4.43-4.73,5.96-7.67.16-.31.15-.68.18-1.06l-1.25,2.07-1.03,1.47-2.01,2.47c-1.95,2.16-4.17,4.02-6.72,5.43l-2.03.9-2.9,1.06-.45.55c.03-.25-.05-.39-.17-.41-.06,0-.14.13-.21.14l-1.45.35c.08.2.14.27.13.47-.14-.13-.23-.13-.38-.16.22-.06.17-.22,0-.19-.49.34-1.31.22-1.26.51l.07.4c.01.06-.11.16-.14.15-.04-.02-.07-.11-.06-.21,0-.2-.05-.52-.41-.38-.01.04-.35.05-.24.33-.17.08-.35.18-.47.36-.12-.18-.2-.26-.28-.3-.1-.05-.2.15-.23.23-.24.02-.51.07-.7.22-.08-.21-.24-.09-.15.07.04.23-.2.28-.28.03-.61.48-.88.24-1.26.43Z"/>
        <path class="cls-1" d="M76.79,146.02c-.27.16-.47.14-.78.23.38.17.74.02,1.14-.07,2.37-.51,4.52-1.4,6.74-2.63-.54.69-1.43.97-2.23,1.32l-1.25.54c-2.57,1.12-7.68,2.16-10.17,1.78l-.84-.02c-4.62-.33-9.02-1.83-12.92-4.31-1.05-.67-1.93-1.36-2.89-2.13l-.58-.46c-2-1.61-3.57-3.55-5.05-5.68-2.32-3.35-3.89-7.06-4.66-11.07-.13-.7-.33-1.28-.3-1.99l-.17-1.16.03-4.22.16-1.51c.41-3.79,2.58-8.74,4.86-11.88.83-1.14,1.62-2.21,2.7-3.13.13-.11.25-.47.53-.27-1.59,1.39-2.75,2.95-3.85,4.66l-1.47,2.72c.36-.08.4-.39.55-.62l1.19-1.95c1.8-2.96,4.31-5.41,7.22-7.32s5.74-2.99,8.97-3.63l2.2-.29,1.17-.08,1.87-.02c.78,0,1.5.19,2.3.05-.67-.21-1.37-.12-2.09-.19-.56-.05-1.05-.15-1.6-.03-.17.04-.45-.03-.6-.14,1.37-.01,2.67-.02,4,.16l1.2.17,3.64.84,1.32.44c2.3.76,4.34,1.96,6.35,3.3l2.29,1.78,1.52,1.39.75.82,1.2,1.32c3.64,4.49,6.01,9.9,6.56,15.67l.08.86-.02,4.44c-.16,2.46-.71,4.8-1.5,7.11-.11.34-.27.46-.39.75l-.52,1.23-.59,1.09-.99,1.66c-.38.38-.68.82-.77,1.38-.54.08-.62.62-1.36,1.38l-2.12,2.19c-.29-.22-.58-.21-.86-.04-.21.13-.45.06-.68.11l-.5.11c-.06.01-.09.05-.11.07-.04.05-.12.02-.14-.07-.02-.06-.04-.11-.11-.19l-1,.52c-1.41.74-2.78,1.5-4.35,1.85-.59.13-1.12.36-1.78.34-.2,0,0,.21.01.37,0,.14-.08,0-.28-.13-.04.18.08.34.29.46-.24,0-.37.22-.53.33l-.7.46c-.16.1-.6-.07-.63.31.17-.09.71-.07.69.19-.01.24-.34.51-.16.85ZM44.75,127.38c.47,1.37,1.01,2.64,1.95,3.81.11-.29-.19-.57-.21-.79s.22-.14.26-.2l1.05-1.3c5.46,10.96,18.49,15.87,29.87,11.14.37-.16.74-.2,1.03-.4.59-.4,1.25-.73,1.93-1l1.45-.57c.14-.06.47-.01.51-.3-.35.02-.6.22-.96.33-.17.06-.21-.15-.02-.13l2.55-1.98c4.67-4.08,7.48-9.93,7.88-16.13v-2.72c-.71-11.86-10.06-21.25-21.92-22-7.03-.44-14.04,2.4-18.79,7.71-4.08,4.55-6.17,10.46-5.99,16.55l-.67-1.45c-.14-.3-.33-.52-.74-.53-.11,0-.15.26-.22.38v-2.8s.22-1.66.22-1.66l.21-1.04c.13-.67.53-1.28.42-2.04-.83,2.28-1.18,4.64-1.35,7.06l-.02,2.35.1,1.05.1,1.26c.06.78.17,1.56.39,2.28l.5,1.69.5,1.45ZM93.61,113.59c.22.08.28-.13.2-.22-.04-.05-.17-.14-.16-.26.06-.1.58-.31.51-.54-1.85-5.95-5.6-11.05-10.66-14.63l-1.16-.75-1.98-1.11-.77-.29-.75.6c.19.21.37.31.59.4,1.24.48,2.4,1.06,3.46,1.86l2.67,2.02,1.73,1.61.8.87c2.35,2.56,3.97,5.63,5.12,8.91l.41,1.54ZM80.59,139.18c.35.15.56-.09.89-.12l-.85.62c.4.16.77.1,1.13-.02l2.88-.97c.63-.21,1.25-.4,1.71-.9-.34,0-.49.31-.75.39l-1.46.43-2.04.77c-.26.1-.52.32-.84.05.48-.28.91-.45,1.21-.83l-1.87.57ZM58.64,143.45l-1.35-.8-.88-.57-.78-.55-2-1.55c-.28-.21-.46-.56-.85-.59,1.95,2.07,4.78,4,7.29,5.07l2.26.96c1.38.58,2.78.91,4.25,1.19.07.01.17-.09.18-.16-2.88-.54-5.56-1.49-8.11-2.99Z"/>
        <path class="cls-1" d="M51.75,98.54l1.11-.92,2.02-1.39,2.88-1.44c-1.5.94-3.07,1.56-4.42,2.68l-1.4,1.16c-.1.03-.15-.03-.18-.08Z"/>
        <path class="cls-1" d="M67.06,132.71c-.37.25-.71.48-1.14.46s-.54.21-.83.44l-1.18.27c-.29.07-.75.82-2.17.17-.23-.11-.54.43-.54.66-.42-.28-.48-.71-.77-1l-2.21-2.26-.6-.85-1.77-2.19c-.36-.44-.76-.74-.8-1.4-.01-.2-.35-.41-.54-.38-.57.11-.92-.17-1.38-.4l-.73-.36c.56-.56,1.38.41,1.84.19.6-.29.94-1.26,1.74-2.01l.34-.69,1.2-1.83,1.05-1.77c.35-.59.31-1.33-.12-1.87.05-.5-.11-.9-.35-1.33l-.15-1.26c-.05-.43.4-.78.67-1.05l.16,1.15c.12.87.39,1.68.28,2.58.2-.05.3-.03.39,0,.19.07.14.31.27.43l.79.75.28,1.04c.14-.28,0-.49-.05-.92.64.49,1.3.6,1.92.96l1.25.72,1.42.38,1.49.27,1.78.43c.42.1.69-.22,1.04-.45l.89-.56c.19-.12.48-.15.71-.23.04.42-.22.59-.46.79l-.8.66-.59.55c-.4.37-.22,1.08-.14,1.57l.11.73c-.01.7.28,1.3.3,1.98l.1,2.84.13,1.14c.02.18.35.53.18.73-.68.05-1.24.21-1.8.6l-1.18.32Z"/>
        <path class="cls-1" d="M83.21,118.25l-1.4-.63-1.25-.42-1.64-.65c-.34-.14-.57-.33-.98-.39-.53-.08-1.14-.15-1.52.38-.12.17-.5.33-.59.15.02-.64.99-1.28.9-1.79l-.27-1.5-.55-2.59c-.16-.76-.41-1.45-.45-2.26-.05-.95-1.14-2.1.14-2.63.24-.1.6-.19.82-.3l.82-.44,1.24-.46,1.32-.54,1.23-.62.28-.93c.86.14.3,1.35,1.11.91.28.22.45.51.6.84l.62,1.35c.29.63,1.02.94,1.55,1.35l.59.75c.37.47.46.94.66,1.46.18.47.63.86.7,1.36-.34.32-.8.84-.75,1.26.09.41.65.5.9.77-.48.07-.94-.07-1.36.16-.01.3.28.67.4.91-.08.71,0,1.3.47,1.91l-.71,1.74c-.12.29-.36.63-.56.86-.15.17-.51.17-.64.42-.13.26-.52.23-.71.05-.29-.26-.63-.29-.98-.45Z"/>
        <path class="cls-1" d="M59.22,138.88c-.65-.26-1.66-.86-1.68-.91-.06-.11-.11-.49.04-.54,1.01-.4,2.04.66,3.02.05-.62-.79.03-1.32.04-2.23.26.07.37.22.64.4-.35.52-.26,1.08-.36,1.69l-.09.56c-.02.12.31.19.38.31.2.35.41.47.73.67.29.19.54.44.96.37.5.34,1.04.56,1.65.53.67.39,1.39.56,2.17.56h4.36c.69-.08,1.33-.09,1.88-.56.68-.02,1.31-.14,1.86-.53.45,0,.8-.18,1.19-.35l1.04-.46c-.28-.61.48-1.67.52-1.69.39-.17.78.44.95.02-.26-.1-.68-.1-.89-.39-.09-.18.22-.56.2-.75-.03-.33-.05-.65.04-1,.19-.73-.13-1.24-.16-1.18.12-.29,1.05-.01,1.28-.38s.63-.29.84-.46c.25-.2.38-.31.68-.48.32-.18.42-.51.89-.59.26-.04.6-.49.83-.66,1.27-.95,1.9-2.01,2.89-3.02.97-.37,1.64.57,2.67.46-1.3,1.43-2.78,2.55-4.51,3.39-.29.14-.55.26-.71.53,1.99-.45,4.06-1.73,5.5-3.24.02.5-.33.77-.56,1.12l-1.4,2.15c-.24.36-.5.74-.87,1.01-.6.43-1.04.95-1.52,1.5-.82.93-1.86,1.65-2.94,2.25l-1.23.18c.24.1.53.04.84.06-.16.32-.47.35-.73.52-.56.37-1.1.83-1.8.9-.5.05-.99.02-1.45.2l1.5-.05c-.28.29-.68.28-1.03.45l-.82.42-1.36.51-1.38.3c-.46.26-.99.2-1.5.29l-2.09.38-2.26-.02-1.83-.33c-.76.02-1.4-.32-2.11-.47-.66-.14-1.22-.3-1.86-.54l-1.38-.5-1.11-.45Z"/>
        <path class="cls-1" d="M48.53,127.05c-.74-.27-.56-.98-1.15-2.16l-.28-1.12-.19-.61c-.09-.29-.11-.41-.09-.72.02-.49-.95-3.11-.6-6.05l.08-1.38c.01-.23.23-.4.36-.44.19-.07.6-.02.6.23v1.77s.06,1.31.06,1.31l.6,2.96c.31,1.51,1.32,2.4.99,3.85l-.14,1.2c-.04.39.11.76-.24,1.15Z"/>
        <path class="cls-1" d="M88.58,108.47s.67.67.41.89c-.08.07-.11.1-.21.1-.12,0-.14-.13-.21-.26l-.38-.71c-.09-.44-.32-.63-.53-.96l-.57-.89-.53-.81c-.62-.95-1.19-1.81-2.06-2.55l-.54-.7-.51-.5c-.38-.37-.61-.74-1.01-1.12l-.57-.54c-.26-.24-.42-.43-.81-.62.28-.26.53-.12.68.12l.44.26c.13.25.41.31.58.48l1.45,1.45,1.13,1.16c.36.37.72.78.98,1.2l.56.9c.17.27.19.58.51.77l.23.57c.3.22.32.55.46.81l.51.95Z"/>
        <path class="cls-1" d="M52.41,104.68c-.13.2-.28.36-.53.37.24-.67.68-1.54,1.02-1.97l1.14-1.47c.59-.77,1.4-1.26,2.24-1.71.23-.12.38-.46.74-.28-.84.59-1.52,1.27-2.26,1.98s-.92,1-1.42,1.73l-.92,1.34Z"/>
        <path class="cls-1" d="M64.53,97.6c-.1.16-.07.46-.17.54-.13.1-.41.22-.54.15-.19-.32-.09-.7.21-.94l1.2-.96c.53-.42,1.27-.63,1.93-.26-.95.82-2.13.68-2.63,1.48Z"/>
      </g>
    </g>
  </g>
</svg>